<svg xmlns="http://www.w3.org/2000/svg" width="1480.152" height="2646.976" viewBox="0 0 1480.152 2646.976">
  <g id="BACKKKK" transform="translate(99.148 -662.954)">
    <g id="Background" transform="translate(-99.148 664)">
      <g id="Layer_2" data-name="Layer 2" transform="translate(123.798 971.299) rotate(8)">
        <g id="Surfaces" transform="translate(0 0)">
          <g id="Video_Audio_Surface" data-name="Video/Audio Surface" transform="translate(0 0)">
            <g id="Outline_no_shadow" data-name="Outline no shadow">
              <rect id="Rectangle_41" data-name="Rectangle 41" width="181.546" height="177.118" rx="42.5" fill="#110c39"/>
            </g>
          </g>
        </g>
        <g id="Outlined_Mnemonics_Logos" data-name="Outlined Mnemonics &amp; Logos" transform="translate(22.438 45.494)">
          <g id="Ae" transform="translate(0 0)">
            <path id="Tracé_10" data-name="Tracé 10" d="M50.527,60.487H22.382L16.655,78.31a1.433,1.433,0,0,1-1.462,1.1H.938q-1.219,0-.853-1.34L24.453,8.175c.244-.731.487-1.446.731-2.38A26.03,26.03,0,0,0,25.671.861a.754.754,0,0,1,.853-.853H45.9q.851,0,.975.609L74.53,78.188q.365,1.219-.731,1.219H57.959a1.126,1.126,0,0,1-1.218-.853ZM26.768,45.459H46.019q-.731-2.436-1.706-5.483t-2.071-6.519l-2.193-6.945q-1.1-3.472-2.011-6.7T36.393,13.9h-.122a98.259,98.259,0,0,1-2.559,9.747q-1.708,5.483-3.472,11.209T26.768,45.459Z" transform="translate(0 0)" fill="#99f"/>
            <path id="Tracé_11" data-name="Tracé 11" d="M41.061,35.388h-24A17.116,17.116,0,0,0,19.373,42.1a12.535,12.535,0,0,0,5.544,4.569,23.149,23.149,0,0,0,9.687,1.9,43.9,43.9,0,0,0,7.859-.863,28.965,28.965,0,0,0,6.757-1.761c.405-.324.609-.122.609.609V58.129a1.8,1.8,0,0,1-.183.914,1.748,1.748,0,0,1-.548.548,30.985,30.985,0,0,1-7.549,2.249,53.554,53.554,0,0,1-10.722.914,34.746,34.746,0,0,1-14.5-2.681,25.841,25.841,0,0,1-9.5-7.189,28.15,28.15,0,0,1-5.239-9.93A39.1,39.1,0,0,1,0,31.927a38.4,38.4,0,0,1,1.889-12A31.35,31.35,0,0,1,7.554,9.57a27.217,27.217,0,0,1,9.138-7.189C20.266.635,24.49.009,29.364.009A27.5,27.5,0,0,1,41.122,2.324,20.722,20.722,0,0,1,49.1,8.351a27.709,27.709,0,0,1,4.508,8.59,30.611,30.611,0,0,1,1.462,9.26q0,2.681-.183,4.874t-.3,3.168a1.1,1.1,0,0,1-1.1.975q-.731,0-2.5.183t-4.386.244C44.857,35.685,43.01,35.388,41.061,35.388Zm-24-11.1H33.019q2.924,0,4.325-.061a4.256,4.256,0,0,0,1.767-.586v-.731a9.747,9.747,0,0,0-.487-2.8,9.954,9.954,0,0,0-9.869-6.945A10.584,10.584,0,0,0,18.7,18.89,17.623,17.623,0,0,0,17.058,24.289Z" transform="translate(78.308 18.161)" fill="#99f"/>
          </g>
        </g>
      </g>
      <g id="Layer_2-2" data-name="Layer 2" transform="translate(1070.258 1763.692) rotate(8)">
        <g id="Surfaces-2" data-name="Surfaces" transform="translate(0 0)">
          <g id="Video_Audio_Surface-2" data-name="Video/Audio Surface">
            <g id="Outline_no_shadow-2" data-name="Outline no shadow">
              <rect id="Rectangle_41-2" data-name="Rectangle 41" width="235.487" height="229.743" rx="42.5" fill="#110c39"/>
            </g>
          </g>
        </g>
        <g id="Outlined_Mnemonics_Logos-2" data-name="Outlined Mnemonics &amp; Logos" transform="translate(29.104 59.011)">
          <g id="Ae-2" data-name="Ae" transform="translate(0)">
            <path id="Tracé_10-2" data-name="Tracé 10" d="M65.54,78.459H29.032L21.6,101.577a1.859,1.859,0,0,1-1.9,1.422H1.216q-1.582,0-1.106-1.738L31.719,10.6c.316-.948.632-1.875.948-3.088a33.763,33.763,0,0,0,.632-6.4A.978.978,0,0,1,34.405.01H59.534q1.1,0,1.264.79L96.674,101.419Q97.148,103,95.726,103H75.18a1.461,1.461,0,0,1-1.58-1.106ZM34.722,58.966H59.692q-.948-3.16-2.213-7.112T54.793,43.4L51.948,34.39q-1.422-4.5-2.608-8.692t-2.133-7.665h-.158A127.453,127.453,0,0,1,43.73,30.676q-2.215,7.112-4.5,14.54T34.722,58.966Z" fill="#99f"/>
            <path id="Tracé_11-2" data-name="Tracé 11" d="M53.261,45.9H22.126a22.2,22.2,0,0,0,3,8.708,16.26,16.26,0,0,0,7.191,5.926A30.027,30.027,0,0,0,44.885,63,56.937,56.937,0,0,0,55.078,61.88,37.571,37.571,0,0,0,63.842,59.6c.526-.42.79-.158.79.79V75.4a2.34,2.34,0,0,1-.237,1.185,2.267,2.267,0,0,1-.711.711,40.191,40.191,0,0,1-9.791,2.917A69.466,69.466,0,0,1,39.985,81.4q-11.224,0-18.807-3.477A33.519,33.519,0,0,1,8.851,68.6a36.514,36.514,0,0,1-6.8-12.881A50.719,50.719,0,0,1,0,41.414,49.813,49.813,0,0,1,2.45,25.847,40.664,40.664,0,0,1,9.8,12.413,35.3,35.3,0,0,1,21.652,3.088C26.287.824,31.767.011,38.088.011a35.667,35.667,0,0,1,15.251,3,26.879,26.879,0,0,1,10.352,7.818,35.942,35.942,0,0,1,5.848,11.142,39.705,39.705,0,0,1,1.9,12.011q0,3.478-.237,6.322T70.8,44.417a1.432,1.432,0,0,1-1.423,1.264q-.948,0-3.24.237t-5.689.316C58.185,46.288,55.789,45.9,53.261,45.9Zm-31.134-14.4h20.7q3.793,0,5.61-.079a5.521,5.521,0,0,0,2.292-.76v-.948a12.643,12.643,0,0,0-.632-3.635,12.911,12.911,0,0,0-12.8-9.008A13.729,13.729,0,0,0,24.26,24.5,22.86,22.86,0,0,0,22.126,31.505Z" transform="translate(101.575 23.558)" fill="#99f"/>
          </g>
        </g>
      </g>
      <g id="Layer_2-3" data-name="Layer 2" transform="translate(1119.08 1315.157) rotate(-5)">
        <g id="Surfaces-3" data-name="Surfaces" transform="translate(0 0)">
          <g id="Video_Audio_Surface-3" data-name="Video/Audio Surface" transform="translate(0 0)">
            <g id="Outline_no_shadow-3" data-name="Outline no shadow">
              <rect id="Rectangle_41-3" data-name="Rectangle 41" width="138.312" height="134.938" rx="42.5" fill="#110c39"/>
            </g>
          </g>
        </g>
        <g id="Outlined_Mnemonics_Logos-3" data-name="Outlined Mnemonics &amp; Logos" transform="translate(17.094 34.66)">
          <g id="Ae-3" data-name="Ae" transform="translate(0 0)">
            <path id="Tracé_10-3" data-name="Tracé 10" d="M38.494,46.082H17.052L12.689,59.661a1.092,1.092,0,0,1-1.114.835H.714q-.929,0-.65-1.021L18.63,6.228c.186-.557.371-1.1.557-1.814A19.831,19.831,0,0,0,19.558.656a.575.575,0,0,1,.65-.65H34.967q.648,0,.743.464l21.071,59.1q.278.929-.557.928H44.157a.858.858,0,0,1-.928-.65Zm-18.1-11.449H35.06q-.557-1.856-1.3-4.177T32.182,25.49L30.511,20.2q-.835-2.645-1.532-5.105t-1.253-4.5h-.093a74.861,74.861,0,0,1-1.949,7.426q-1.3,4.177-2.645,8.54T20.393,34.633Z" transform="translate(0 0)" fill="#99f"/>
            <path id="Tracé_11-3" data-name="Tracé 11" d="M31.282,26.961H13a13.04,13.04,0,0,0,1.764,5.114,9.55,9.55,0,0,0,4.223,3.481A17.636,17.636,0,0,0,26.363,37a33.441,33.441,0,0,0,5.987-.657A22.068,22.068,0,0,0,37.5,35c.309-.246.464-.093.464.464v8.818a1.375,1.375,0,0,1-.139.7,1.331,1.331,0,0,1-.418.418,23.606,23.606,0,0,1-5.751,1.713,40.8,40.8,0,0,1-8.169.7,26.471,26.471,0,0,1-11.046-2.042A19.687,19.687,0,0,1,5.2,40.29a21.447,21.447,0,0,1-3.992-7.565A29.79,29.79,0,0,1,0,24.324a29.258,29.258,0,0,1,1.439-9.143,23.884,23.884,0,0,1,4.316-7.89,20.735,20.735,0,0,1,6.962-5.477A21.8,21.8,0,0,1,22.371.007,20.949,20.949,0,0,1,31.329,1.77a15.787,15.787,0,0,1,6.08,4.592,21.111,21.111,0,0,1,3.435,6.544,23.321,23.321,0,0,1,1.114,7.055q0,2.043-.139,3.713t-.232,2.413a.841.841,0,0,1-.836.743q-.557,0-1.9.139t-3.342.186C34.174,27.187,32.768,26.961,31.282,26.961ZM13,18.5h12.16q2.228,0,3.3-.046a3.243,3.243,0,0,0,1.346-.446v-.557a7.426,7.426,0,0,0-.371-2.135,7.583,7.583,0,0,0-7.519-5.291,8.064,8.064,0,0,0-7.658,4.363A13.427,13.427,0,0,0,13,18.5Z" transform="translate(59.659 13.836)" fill="#99f"/>
          </g>
        </g>
      </g>
      <g id="Layer_2-4" data-name="Layer 2" transform="matrix(0.951, 0.309, -0.309, 0.951, 1245.312, 63.542)">
        <g id="Surfaces-4" data-name="Surfaces" transform="translate(0)">
          <g id="Video_Audio_Surface-4" data-name="Video/Audio Surface">
            <g id="Outline_no_shadow-4" data-name="Outline no shadow">
              <rect id="Rectangle_41-4" data-name="Rectangle 41" width="246.926" height="240.903" rx="42.5" fill="#110c39"/>
            </g>
          </g>
        </g>
        <g id="Outlined_Mnemonics_Logos-4" data-name="Outlined Mnemonics &amp; Logos" transform="translate(30.518 61.878)">
          <g id="Ae-4" data-name="Ae" transform="translate(0 0)">
            <path id="Tracé_10-4" data-name="Tracé 10" d="M68.724,82.27H30.442l-7.789,24.241A1.949,1.949,0,0,1,20.664,108H1.275q-1.659,0-1.16-1.823L33.259,11.12c.331-.994.663-1.966.994-3.238a35.4,35.4,0,0,0,.663-6.711A1.026,1.026,0,0,1,36.076.01h26.35q1.157,0,1.326.829L101.37,106.345q.5,1.659-.994,1.657H78.832a1.532,1.532,0,0,1-1.657-1.16ZM36.408,61.83H62.592q-.994-3.313-2.32-7.458t-2.817-8.866L54.471,36.06q-1.491-4.723-2.735-9.115T49.5,18.908h-.166a133.648,133.648,0,0,1-3.48,13.257q-2.323,7.458-4.723,15.246T36.408,61.83Z" transform="translate(0 0)" fill="#99f"/>
            <path id="Tracé_11-4" data-name="Tracé 11" d="M55.848,48.132H23.2a23.28,23.28,0,0,0,3.149,9.131,17.05,17.05,0,0,0,7.54,6.214A31.486,31.486,0,0,0,47.065,66.06a59.7,59.7,0,0,0,10.689-1.174,39.4,39.4,0,0,0,9.19-2.4c.551-.44.829-.166.829.829V79.063a2.454,2.454,0,0,1-.249,1.243,2.377,2.377,0,0,1-.746.746A42.145,42.145,0,0,1,56.511,84.11a72.838,72.838,0,0,1-14.583,1.243q-11.769,0-19.721-3.646A35.148,35.148,0,0,1,9.281,71.929,38.288,38.288,0,0,1,2.154,58.423,53.184,53.184,0,0,1,0,43.425,52.233,52.233,0,0,1,2.569,27.1a42.639,42.639,0,0,1,7.706-14.086A37.018,37.018,0,0,1,22.7,3.238C27.564.864,33.31.012,39.939.012A37.4,37.4,0,0,1,55.931,3.16a28.185,28.185,0,0,1,10.855,8.2,37.689,37.689,0,0,1,6.132,11.683,41.635,41.635,0,0,1,1.989,12.595q0,3.647-.249,6.629t-.414,4.309A1.5,1.5,0,0,1,72.751,47.9q-.994,0-3.4.249t-5.966.331C61.011,48.537,58.5,48.132,55.848,48.132ZM23.2,33.036H44.91q3.977,0,5.883-.083a5.789,5.789,0,0,0,2.4-.8v-.994a13.257,13.257,0,0,0-.663-3.811A13.538,13.538,0,0,0,39.11,17.9a14.4,14.4,0,0,0-13.672,7.789A23.969,23.969,0,0,0,23.2,33.036Z" transform="translate(106.509 24.702)" fill="#99f"/>
          </g>
        </g>
      </g>
      <g id="Layer_2-5" data-name="Layer 2" transform="translate(649.929 855.63) rotate(-9)">
        <g id="Surfaces-5" data-name="Surfaces" transform="translate(0 0)">
          <g id="Video_Audio_Surface-5" data-name="Video/Audio Surface" transform="translate(0 0)">
            <g id="Outline_no_shadow-5" data-name="Outline no shadow" transform="translate(0)">
              <rect id="Rectangle_41-5" data-name="Rectangle 41" width="99.131" height="96.713" rx="42.5" fill="#110c39"/>
            </g>
          </g>
        </g>
        <g id="Outlined_Mnemonics_Logos-5" data-name="Outlined Mnemonics &amp; Logos" transform="translate(12.252 24.841)">
          <g id="Ae-5" data-name="Ae" transform="translate(0 0)">
            <path id="Tracé_10-5" data-name="Tracé 10" d="M27.59,33.028H12.221L9.094,42.76a.782.782,0,0,1-.8.6H.512q-.666,0-.466-.732L13.352,4.464c.133-.4.266-.789.4-1.3A14.212,14.212,0,0,0,14.018.47.412.412,0,0,1,14.483,0H25.062q.465,0,.532.333L40.7,42.694q.2.666-.4.665H31.648a.615.615,0,0,1-.665-.466ZM14.616,24.822H25.128q-.4-1.33-.932-2.994t-1.131-3.559l-1.2-3.792q-.6-1.9-1.1-3.659t-.9-3.227h-.067a53.658,53.658,0,0,1-1.4,5.322q-.933,2.994-1.9,6.121T14.616,24.822Z" transform="translate(0 0)" fill="#99f"/>
            <path id="Tracé_11-5" data-name="Tracé 11" d="M22.421,19.323H9.314a9.346,9.346,0,0,0,1.264,3.666,6.845,6.845,0,0,0,3.027,2.495,12.64,12.64,0,0,0,5.289,1.037,23.967,23.967,0,0,0,4.291-.471,15.816,15.816,0,0,0,3.689-.962c.221-.177.333-.066.333.333v6.32a.985.985,0,0,1-.1.5.954.954,0,0,1-.3.3,16.919,16.919,0,0,1-4.122,1.228,29.242,29.242,0,0,1-5.855.5A18.972,18.972,0,0,1,8.915,32.8a14.11,14.11,0,0,1-5.189-3.925A15.371,15.371,0,0,1,.865,23.455,21.352,21.352,0,0,1,0,17.434,20.97,20.97,0,0,1,1.031,10.88,17.118,17.118,0,0,1,4.125,5.225,14.862,14.862,0,0,1,9.115,1.3,15.623,15.623,0,0,1,16.034,0a15.015,15.015,0,0,1,6.42,1.264A11.315,11.315,0,0,1,26.812,4.56a15.131,15.131,0,0,1,2.462,4.69,16.715,16.715,0,0,1,.8,5.056q0,1.464-.1,2.661t-.166,1.73a.6.6,0,0,1-.6.532q-.4,0-1.364.1t-2.4.133C24.494,19.486,23.485,19.323,22.421,19.323ZM9.314,13.263H18.03q1.6,0,2.362-.033a2.324,2.324,0,0,0,.965-.32v-.4a5.322,5.322,0,0,0-.266-1.53A5.435,5.435,0,0,0,15.7,7.188a5.779,5.779,0,0,0-5.489,3.127A9.622,9.622,0,0,0,9.314,13.263Z" transform="translate(42.759 9.917)" fill="#99f"/>
          </g>
        </g>
      </g>
      <g id="Layer_2-6" data-name="Layer 2" transform="translate(715.918 306.626) rotate(-20)">
        <g id="Surfaces-6" data-name="Surfaces">
          <g id="Video_Audio_Surface-6" data-name="Video/Audio Surface" transform="translate(0 0)">
            <g id="Outline_no_shadow-6" data-name="Outline no shadow">
              <rect id="Rectangle_41-6" data-name="Rectangle 41" width="152.027" height="148.319" rx="42.5" fill="#110c39"/>
            </g>
          </g>
        </g>
        <g id="Outlined_Mnemonics_Logos-6" data-name="Outlined Mnemonics &amp; Logos" transform="translate(18.789 38.097)">
          <g id="Ae-6" data-name="Ae" transform="translate(0 0)">
            <path id="Tracé_10-6" data-name="Tracé 10" d="M42.312,50.652H18.742l-4.8,14.925a1.2,1.2,0,0,1-1.224.918H.785q-1.021,0-.714-1.122L20.477,6.846c.2-.612.408-1.21.612-1.993A21.8,21.8,0,0,0,21.5.721a.632.632,0,0,1,.714-.714H38.435q.712,0,.816.51L62.412,65.475q.306,1.021-.612,1.02H48.535a.943.943,0,0,1-1.02-.714Zm-19.9-12.584H38.537q-.612-2.04-1.429-4.591t-1.734-5.459L33.537,22.2q-.918-2.908-1.684-5.612t-1.377-4.948h-.1A82.285,82.285,0,0,1,28.231,19.8Q26.8,24.4,25.324,29.191T22.416,38.067Z" transform="translate(0 0)" fill="#99f"/>
            <path id="Tracé_11-6" data-name="Tracé 11" d="M34.384,29.634h-20.1a14.333,14.333,0,0,0,1.939,5.622,10.5,10.5,0,0,0,4.642,3.826,19.385,19.385,0,0,0,8.112,1.59,36.758,36.758,0,0,0,6.581-.723,24.256,24.256,0,0,0,5.658-1.475c.339-.271.51-.1.51.51v9.693a1.511,1.511,0,0,1-.153.765,1.464,1.464,0,0,1-.459.459,25.947,25.947,0,0,1-6.321,1.883,44.844,44.844,0,0,1-8.979.765,29.1,29.1,0,0,1-12.142-2.245,21.64,21.64,0,0,1-7.958-6.02A23.573,23.573,0,0,1,1.326,35.97,32.744,32.744,0,0,1,0,26.736a32.159,32.159,0,0,1,1.582-10.05A26.253,26.253,0,0,1,6.326,8.014a22.791,22.791,0,0,1,7.652-6.02A23.96,23.96,0,0,1,24.589.007a23.026,23.026,0,0,1,9.846,1.938,17.353,17.353,0,0,1,6.683,5.047,23.2,23.2,0,0,1,3.775,7.193,25.634,25.634,0,0,1,1.224,7.754q0,2.245-.153,4.081t-.255,2.653a.924.924,0,0,1-.918.816q-.612,0-2.092.153t-3.673.2C37.563,29.883,36.017,29.634,34.384,29.634Zm-20.1-9.295H27.65q2.449,0,3.622-.051a3.564,3.564,0,0,0,1.48-.49v-.612a8.162,8.162,0,0,0-.408-2.347,8.335,8.335,0,0,0-8.265-5.816,8.863,8.863,0,0,0-8.418,4.8A14.757,14.757,0,0,0,14.284,20.34Z" transform="translate(65.575 15.208)" fill="#99f"/>
          </g>
        </g>
      </g>
      <g id="Layer_2-7" data-name="Layer 2" transform="translate(0 96.703) rotate(-14)">
        <g id="Surfaces-7" data-name="Surfaces">
          <g id="Video_Audio_Surface-7" data-name="Video/Audio Surface">
            <g id="Outline_no_shadow-7" data-name="Outline no shadow">
              <rect id="Rectangle_41-7" data-name="Rectangle 41" width="187.6" height="183.024" rx="42.5" fill="#110c39"/>
            </g>
          </g>
        </g>
        <g id="Outlined_Mnemonics_Logos-7" data-name="Outlined Mnemonics &amp; Logos" transform="translate(23.186 47.011)">
          <g id="Ae-7" data-name="Ae">
            <path id="Tracé_10-7" data-name="Tracé 10" d="M52.212,62.5H23.128L17.211,80.921A1.481,1.481,0,0,1,15.7,82.054H.969q-1.26,0-.881-1.385L25.269,8.448c.252-.755.5-1.494.755-2.46a26.9,26.9,0,0,0,.5-5.1.779.779,0,0,1,.881-.881H47.428q.879,0,1.007.63l28.58,80.158q.377,1.26-.755,1.259H59.892a1.164,1.164,0,0,1-1.259-.881ZM27.661,46.975H47.554q-.755-2.517-1.763-5.666t-2.14-6.736L41.384,27.4q-1.133-3.588-2.078-6.925t-1.7-6.106h-.126a101.539,101.539,0,0,1-2.644,10.072Q33.072,30.1,31.249,36.021T27.661,46.975Z" fill="#99f"/>
            <path id="Tracé_11-7" data-name="Tracé 11" d="M42.43,36.568h-24.8a17.687,17.687,0,0,0,2.392,6.937,12.953,12.953,0,0,0,5.728,4.721,23.921,23.921,0,0,0,10.01,1.962,45.357,45.357,0,0,0,8.121-.892,29.93,29.93,0,0,0,6.982-1.82c.419-.334.63-.126.63.63V60.067a1.864,1.864,0,0,1-.189.944,1.806,1.806,0,0,1-.567.566,32.019,32.019,0,0,1-7.8,2.324,55.338,55.338,0,0,1-11.08.944q-8.941,0-14.983-2.77a26.7,26.7,0,0,1-9.82-7.428A29.089,29.089,0,0,1,1.637,44.386,40.406,40.406,0,0,1,0,32.992a39.684,39.684,0,0,1,1.952-12.4,32.4,32.4,0,0,1,5.854-10.7A28.124,28.124,0,0,1,17.249,2.46C20.942.656,25.307.009,30.343.009A28.414,28.414,0,0,1,42.493,2.4,21.413,21.413,0,0,1,50.739,8.63,28.634,28.634,0,0,1,55.4,17.506a31.632,31.632,0,0,1,1.511,9.569q0,2.771-.189,5.036t-.315,3.274a1.141,1.141,0,0,1-1.133,1.007q-.756,0-2.581.189t-4.532.252C46.352,36.875,44.444,36.568,42.43,36.568ZM17.627,25.1H34.12q3.022,0,4.469-.063a4.4,4.4,0,0,0,1.826-.605v-.756a10.073,10.073,0,0,0-.5-2.9,10.286,10.286,0,0,0-10.2-7.177A10.937,10.937,0,0,0,19.326,19.52,18.21,18.21,0,0,0,17.627,25.1Z" transform="translate(80.919 18.767)" fill="#99f"/>
          </g>
        </g>
      </g>
      <g id="Layer_2-8" data-name="Layer 2" transform="translate(64.971 1567.837) rotate(-10)">
        <g id="Surfaces-8" data-name="Surfaces" transform="translate(0 0)">
          <g id="Video_Audio_Surface-8" data-name="Video/Audio Surface" transform="translate(0 0)">
            <g id="Outline_no_shadow-8" data-name="Outline no shadow">
              <rect id="Rectangle_41-8" data-name="Rectangle 41" width="165.147" height="161.119" rx="42.5" fill="#110c39"/>
            </g>
          </g>
        </g>
        <g id="Outlined_Mnemonics_Logos-8" data-name="Outlined Mnemonics &amp; Logos" transform="translate(20.411 41.384)">
          <g id="Ae-8" data-name="Ae" transform="translate(0 0)">
            <path id="Tracé_10-8" data-name="Tracé 10" d="M45.963,55.023H20.36L15.151,71.236a1.3,1.3,0,0,1-1.33,1H.853q-1.109,0-.776-1.219L22.244,7.437c.222-.665.443-1.315.665-2.165A23.679,23.679,0,0,0,23.353.783a.686.686,0,0,1,.776-.776H41.751q.774,0,.887.554L67.8,71.125q.332,1.109-.665,1.108H52.724a1.024,1.024,0,0,1-1.108-.776ZM24.35,41.353H41.862q-.665-2.216-1.552-4.988t-1.884-5.93l-2-6.318q-1-3.159-1.829-6.1t-1.5-5.375H33a89.384,89.384,0,0,1-2.327,8.867q-1.554,4.988-3.159,10.2T24.35,41.353Z" transform="translate(0 0)" fill="#99f"/>
            <path id="Tracé_11-8" data-name="Tracé 11" d="M37.352,32.192H15.517A15.57,15.57,0,0,0,17.623,38.3a11.4,11.4,0,0,0,5.043,4.156,21.058,21.058,0,0,0,8.812,1.727,39.93,39.93,0,0,0,7.149-.785,26.348,26.348,0,0,0,6.146-1.6c.369-.294.554-.111.554.554V52.878a1.641,1.641,0,0,1-.166.831,1.59,1.59,0,0,1-.5.5,28.187,28.187,0,0,1-6.867,2.046,48.714,48.714,0,0,1-9.754.831,31.607,31.607,0,0,1-13.189-2.438,23.507,23.507,0,0,1-8.645-6.539,25.607,25.607,0,0,1-4.766-9.033A35.569,35.569,0,0,1,0,29.043,34.935,34.935,0,0,1,1.718,18.126,28.518,28.518,0,0,1,6.872,8.705a24.758,24.758,0,0,1,8.313-6.539C18.435.578,22.278.008,26.711.008a25.014,25.014,0,0,1,10.7,2.106A18.851,18.851,0,0,1,44.667,7.6a25.209,25.209,0,0,1,4.1,7.814,27.848,27.848,0,0,1,1.33,8.424q0,2.439-.166,4.433t-.277,2.882a1,1,0,0,1-1,.887q-.665,0-2.272.166t-3.99.222C40.8,32.462,39.125,32.192,37.352,32.192Zm-21.834-10.1H30.036q2.66,0,3.935-.055a3.872,3.872,0,0,0,1.607-.533v-.665a8.868,8.868,0,0,0-.443-2.549,9.055,9.055,0,0,0-8.978-6.318,9.628,9.628,0,0,0-9.144,5.209A16.031,16.031,0,0,0,15.517,22.095Z" transform="translate(71.234 16.521)" fill="#99f"/>
          </g>
        </g>
      </g>
      <path id="Tracé_65" data-name="Tracé 65" d="M10424.213,825s-307.18,315.6-192.306,659.478,383.756,509.63,650.154,507.307,317.769,805.918,0,923.261-841.592,249.935-859.5,555.8" transform="translate(-9834.412 -825)" fill="none" stroke="#99f" stroke-width="3" stroke-dasharray="10"/>
      <path id="Tracé_66" data-name="Tracé 66" d="M530,664s-387.8,420.682-172.818,862.319,426.487,340.912,589.048,378.7,338.968,226.5,162.615,680.014-589.148-45.5-868.56,175.584-135.59,545.7-135.59,545.7" transform="translate(99.148 -664)" fill="none" stroke="#99f" stroke-width="3"/>
    </g>
    <g id="Background-2" data-name="Background" transform="translate(-34.177 727.542)">
      <g id="Layer_2-9" data-name="Layer 2" transform="translate(1005.287 1697.633) rotate(8)">
        <g id="Surfaces-9" data-name="Surfaces" transform="translate(0 0)">
          <g id="Video_Audio_Surface-9" data-name="Video/Audio Surface" transform="translate(0 0)">
            <g id="Outline_no_shadow-9" data-name="Outline no shadow">
              <rect id="Rectangle_41-9" data-name="Rectangle 41" width="235.487" height="229.743" rx="42.5" fill="#110c39"/>
            </g>
          </g>
        </g>
        <g id="Outlined_Mnemonics_Logos-9" data-name="Outlined Mnemonics &amp; Logos" transform="translate(29.104 59.011)">
          <g id="Ae-9" data-name="Ae" transform="translate(0 0)">
            <path id="Tracé_10-9" data-name="Tracé 10" d="M65.54,78.459H29.032L21.6,101.577a1.859,1.859,0,0,1-1.9,1.422H1.216q-1.582,0-1.106-1.738L31.719,10.6c.316-.948.632-1.875.948-3.088a33.763,33.763,0,0,0,.632-6.4A.978.978,0,0,1,34.405.01H59.534q1.1,0,1.264.79L96.674,101.419Q97.148,103,95.726,103H75.18a1.461,1.461,0,0,1-1.58-1.106ZM34.722,58.966H59.692q-.948-3.16-2.213-7.112T54.793,43.4L51.948,34.39q-1.422-4.5-2.608-8.692t-2.133-7.665h-.158A127.453,127.453,0,0,1,43.73,30.676q-2.215,7.112-4.5,14.54T34.722,58.966Z" fill="#99f"/>
            <path id="Tracé_11-9" data-name="Tracé 11" d="M53.261,45.9H22.126a22.2,22.2,0,0,0,3,8.708,16.26,16.26,0,0,0,7.191,5.926A30.027,30.027,0,0,0,44.885,63,56.937,56.937,0,0,0,55.078,61.88,37.571,37.571,0,0,0,63.842,59.6c.526-.42.79-.158.79.79V75.4a2.34,2.34,0,0,1-.237,1.185,2.267,2.267,0,0,1-.711.711,40.191,40.191,0,0,1-9.791,2.917A69.466,69.466,0,0,1,39.985,81.4q-11.224,0-18.807-3.477A33.519,33.519,0,0,1,8.851,68.6a36.514,36.514,0,0,1-6.8-12.881A50.719,50.719,0,0,1,0,41.414,49.813,49.813,0,0,1,2.45,25.847,40.664,40.664,0,0,1,9.8,12.413,35.3,35.3,0,0,1,21.652,3.088C26.287.824,31.767.011,38.088.011a35.667,35.667,0,0,1,15.251,3,26.879,26.879,0,0,1,10.352,7.818,35.942,35.942,0,0,1,5.848,11.142,39.705,39.705,0,0,1,1.9,12.011q0,3.478-.237,6.322T70.8,44.417a1.432,1.432,0,0,1-1.423,1.264q-.948,0-3.24.237t-5.689.316C58.185,46.288,55.789,45.9,53.261,45.9Zm-31.134-14.4h20.7q3.793,0,5.61-.079a5.521,5.521,0,0,0,2.292-.76v-.948a12.643,12.643,0,0,0-.632-3.635,12.911,12.911,0,0,0-12.8-9.008A13.729,13.729,0,0,0,24.26,24.5,22.86,22.86,0,0,0,22.126,31.505Z" transform="translate(101.575 23.558)" fill="#99f"/>
          </g>
        </g>
      </g>
      <g id="Layer_2-10" data-name="Layer 2" transform="translate(748.872 2208.102) rotate(-8)">
        <g id="Surfaces-10" data-name="Surfaces" transform="translate(0 0)">
          <g id="Video_Audio_Surface-10" data-name="Video/Audio Surface" transform="translate(0 0)">
            <g id="Outline_no_shadow-10" data-name="Outline no shadow">
              <rect id="Rectangle_41-10" data-name="Rectangle 41" width="148.168" height="144.554" rx="42.5" fill="#110c39"/>
            </g>
          </g>
        </g>
        <g id="Outlined_Mnemonics_Logos-10" data-name="Outlined Mnemonics &amp; Logos" transform="translate(18.312 37.13)">
          <g id="Ae-10" data-name="Ae" transform="translate(0 0)">
            <path id="Tracé_10-10" data-name="Tracé 10" d="M41.238,49.366H18.267L13.593,63.912a1.17,1.17,0,0,1-1.193.895H.765q-1,0-.7-1.094L19.957,6.672c.2-.6.4-1.18.6-1.943A21.244,21.244,0,0,0,20.952.7a.616.616,0,0,1,.7-.7H37.459q.694,0,.8.5L60.827,63.812q.3,1-.6.994H47.3a.919.919,0,0,1-.994-.7ZM21.847,37.1H37.558q-.6-1.988-1.392-4.475t-1.69-5.32l-1.79-5.668q-.895-2.834-1.641-5.469T29.7,11.346h-.1A80.193,80.193,0,0,1,27.515,19.3q-1.394,4.475-2.834,9.148T21.847,37.1Z" transform="translate(0 0)" fill="#99f"/>
            <path id="Tracé_11-10" data-name="Tracé 11" d="M33.511,28.882H13.922a13.969,13.969,0,0,0,1.889,5.479,10.231,10.231,0,0,0,4.524,3.729,18.893,18.893,0,0,0,7.906,1.55,35.825,35.825,0,0,0,6.414-.7A23.64,23.64,0,0,0,40.169,37.5c.331-.264.5-.1.5.5v9.447a1.472,1.472,0,0,1-.149.746,1.426,1.426,0,0,1-.448.447,25.287,25.287,0,0,1-6.161,1.835,43.706,43.706,0,0,1-8.751.746,28.357,28.357,0,0,1-11.833-2.188,21.09,21.09,0,0,1-7.756-5.867,22.974,22.974,0,0,1-4.276-8.1,31.913,31.913,0,0,1-1.293-9,31.342,31.342,0,0,1,1.541-9.795A25.586,25.586,0,0,1,6.165,7.81a22.213,22.213,0,0,1,7.458-5.867A23.352,23.352,0,0,1,23.965.007a22.442,22.442,0,0,1,9.6,1.889,16.912,16.912,0,0,1,6.513,4.919,22.615,22.615,0,0,1,3.679,7.011,24.982,24.982,0,0,1,1.193,7.557q0,2.188-.149,3.978t-.248,2.585a.9.9,0,0,1-.9.8q-.6,0-2.038.149t-3.58.2C36.61,29.124,35.1,28.882,33.511,28.882Zm-19.59-9.059H26.948q2.387,0,3.53-.05a3.474,3.474,0,0,0,1.442-.478v-.6a7.955,7.955,0,0,0-.4-2.287,8.124,8.124,0,0,0-8.055-5.668,8.638,8.638,0,0,0-8.2,4.674A14.384,14.384,0,0,0,13.922,19.823Z" transform="translate(63.91 14.822)" fill="#99f"/>
          </g>
        </g>
      </g>
      <g id="Layer_2-11" data-name="Layer 2" transform="translate(219.625 2399.186) rotate(12)">
        <g id="Surfaces-11" data-name="Surfaces" transform="translate(0 0)">
          <g id="Video_Audio_Surface-11" data-name="Video/Audio Surface">
            <g id="Outline_no_shadow-11" data-name="Outline no shadow">
              <rect id="Rectangle_41-11" data-name="Rectangle 41" width="143.01" height="139.522" rx="42.5" fill="#110c39"/>
            </g>
          </g>
        </g>
        <g id="Outlined_Mnemonics_Logos-11" data-name="Outlined Mnemonics &amp; Logos" transform="translate(17.675 35.837)">
          <g id="Ae-11" data-name="Ae" transform="translate(0 0)">
            <path id="Tracé_10-11" data-name="Tracé 10" d="M39.8,47.648H17.631L13.12,61.687a1.129,1.129,0,0,1-1.152.864H.739q-.961,0-.672-1.056L19.263,6.44c.192-.576.384-1.139.576-1.875A20.5,20.5,0,0,0,20.222.678a.594.594,0,0,1,.672-.672H36.155q.67,0,.768.48L58.71,61.591q.288.961-.576.96H45.657a.887.887,0,0,1-.96-.672ZM21.086,35.81H36.251q-.576-1.919-1.344-4.319t-1.632-5.135l-1.728-5.471q-.864-2.735-1.584-5.279t-1.3-4.655h-.1a77.4,77.4,0,0,1-2.015,7.678q-1.345,4.319-2.735,8.83T21.086,35.81Z" transform="translate(0 0)" fill="#99f"/>
            <path id="Tracé_11-11" data-name="Tracé 11" d="M32.345,27.877H13.437a13.483,13.483,0,0,0,1.824,5.288,9.875,9.875,0,0,0,4.367,3.6,18.235,18.235,0,0,0,7.631,1.5,34.578,34.578,0,0,0,6.191-.68,22.817,22.817,0,0,0,5.323-1.387c.319-.255.48-.1.48.48V45.79a1.421,1.421,0,0,1-.144.72,1.377,1.377,0,0,1-.432.432,24.407,24.407,0,0,1-5.946,1.771,42.183,42.183,0,0,1-8.446.72,27.37,27.37,0,0,1-11.422-2.112,20.356,20.356,0,0,1-7.486-5.663,22.175,22.175,0,0,1-4.127-7.822A30.8,30.8,0,0,1,0,25.15,30.251,30.251,0,0,1,1.488,15.7,24.7,24.7,0,0,1,5.951,7.538a21.44,21.44,0,0,1,7.2-5.663A22.539,22.539,0,0,1,23.131.007,21.661,21.661,0,0,1,32.393,1.83,16.324,16.324,0,0,1,38.68,6.578a21.828,21.828,0,0,1,3.551,6.767,24.112,24.112,0,0,1,1.152,7.294q0,2.112-.144,3.839t-.24,2.5a.87.87,0,0,1-.864.768q-.576,0-1.967.144t-3.455.192C35.335,28.111,33.881,27.877,32.345,27.877ZM13.437,19.133H26.01q2.3,0,3.407-.048a3.353,3.353,0,0,0,1.392-.461v-.576a7.679,7.679,0,0,0-.384-2.207,7.841,7.841,0,0,0-7.774-5.471,8.338,8.338,0,0,0-7.918,4.511A13.883,13.883,0,0,0,13.437,19.133Z" transform="translate(61.686 14.306)" fill="#99f"/>
          </g>
        </g>
      </g>
      <g id="Layer_2-12" data-name="Layer 2" transform="matrix(0.94, -0.342, 0.342, 0.94, 1091.34, 2385.427)">
        <g id="Surfaces-12" data-name="Surfaces" transform="translate(0 0)">
          <g id="Video_Audio_Surface-12" data-name="Video/Audio Surface">
            <g id="Outline_no_shadow-12" data-name="Outline no shadow">
              <rect id="Rectangle_41-12" data-name="Rectangle 41" width="214.745" height="209.507" rx="42.5" fill="#110c39"/>
            </g>
          </g>
        </g>
        <g id="Outlined_Mnemonics_Logos-12" data-name="Outlined Mnemonics &amp; Logos" transform="translate(26.541 53.813)">
          <g id="Ae-12" data-name="Ae" transform="translate(0 0)">
            <path id="Tracé_10-12" data-name="Tracé 10" d="M59.767,71.548H26.475L19.7,92.63a1.7,1.7,0,0,1-1.73,1.3H1.109q-1.442,0-1.009-1.585L28.925,9.67c.288-.865.576-1.71.865-2.816a30.788,30.788,0,0,0,.576-5.837A.892.892,0,0,1,31.375.009H54.29q1.006,0,1.153.721L88.159,92.486q.432,1.442-.865,1.441H68.558a1.332,1.332,0,0,1-1.441-1.009Zm-28.1-17.776H54.435q-.865-2.881-2.018-6.486t-2.45-7.711l-2.594-8.215q-1.3-4.107-2.378-7.927t-1.945-6.99H42.9a116.219,116.219,0,0,1-3.026,11.53q-2.02,6.486-4.107,13.259T31.663,53.772Z" transform="translate(0 0)" fill="#99f"/>
            <path id="Tracé_11-12" data-name="Tracé 11" d="M48.569,41.86H20.177A20.247,20.247,0,0,0,22.916,49.8a14.828,14.828,0,0,0,6.557,5.4A27.383,27.383,0,0,0,40.931,57.45a51.926,51.926,0,0,0,9.3-1.021,34.263,34.263,0,0,0,7.992-2.083c.479-.383.721-.144.721.721V68.759a2.134,2.134,0,0,1-.216,1.081,2.068,2.068,0,0,1-.649.648,36.65,36.65,0,0,1-8.929,2.66,63.342,63.342,0,0,1-12.683,1.081q-10.235,0-17.151-3.171a30.566,30.566,0,0,1-11.241-8.5,33.3,33.3,0,0,1-6.2-11.746A46.251,46.251,0,0,1,0,37.766a45.425,45.425,0,0,1,2.234-14.2,37.084,37.084,0,0,1,6.7-12.25,32.194,32.194,0,0,1,10.809-8.5C23.972.751,28.969.01,34.733.01A32.526,32.526,0,0,1,48.641,2.749a24.511,24.511,0,0,1,9.44,7.13,32.777,32.777,0,0,1,5.333,10.161,36.206,36.206,0,0,1,1.73,10.953q0,3.172-.216,5.765t-.36,3.747a1.306,1.306,0,0,1-1.3,1.153q-.865,0-2.954.216t-5.188.288C53.06,42.211,50.875,41.86,48.569,41.86ZM20.177,28.73h18.88q3.459,0,5.116-.072a5.034,5.034,0,0,0,2.09-.693V27.1a11.531,11.531,0,0,0-.576-3.315,11.774,11.774,0,0,0-11.674-8.215,12.52,12.52,0,0,0-11.89,6.774A20.846,20.846,0,0,0,20.177,28.73Z" transform="translate(92.628 21.483)" fill="#99f"/>
          </g>
        </g>
      </g>
      <g id="Layer_2-13" data-name="Layer 2" transform="matrix(0.974, -0.225, 0.225, 0.974, 531.227, 1284.734)">
        <g id="Surfaces-13" data-name="Surfaces" transform="translate(0 0)">
          <g id="Video_Audio_Surface-13" data-name="Video/Audio Surface" transform="translate(0 0)">
            <g id="Outline_no_shadow-13" data-name="Outline no shadow" transform="translate(0 0)">
              <rect id="Rectangle_41-13" data-name="Rectangle 41" width="193.123" height="188.413" rx="42.5" transform="translate(0 0)" fill="#110c39"/>
            </g>
          </g>
        </g>
        <g id="Outlined_Mnemonics_Logos-13" data-name="Outlined Mnemonics &amp; Logos" transform="translate(23.868 48.395)">
          <g id="Ae-13" data-name="Ae" transform="translate(0 0)">
            <path id="Tracé_10-13" data-name="Tracé 10" d="M53.749,64.344H23.809L17.717,83.3a1.524,1.524,0,0,1-1.555,1.167H1q-1.3,0-.907-1.426L26.012,8.7c.259-.778.518-1.538.778-2.532A27.69,27.69,0,0,0,27.308.915a.8.8,0,0,1,.907-.907H48.824q.905,0,1.037.648L79.283,83.174q.389,1.3-.778,1.3H61.656a1.2,1.2,0,0,1-1.3-.907ZM28.475,48.358H48.954q-.778-2.591-1.815-5.833t-2.2-6.934L42.6,28.2q-1.166-3.694-2.139-7.129t-1.75-6.286h-.13a104.521,104.521,0,0,1-2.722,10.369q-1.817,5.833-3.694,11.924T28.475,48.358Z" transform="translate(0 0)" fill="#99f"/>
            <path id="Tracé_11-13" data-name="Tracé 11" d="M43.679,37.645H18.146a18.207,18.207,0,0,0,2.463,7.141,13.335,13.335,0,0,0,5.9,4.86,24.625,24.625,0,0,0,10.3,2.02,46.693,46.693,0,0,0,8.36-.918,30.812,30.812,0,0,0,7.188-1.874c.431-.344.648-.13.648.648V61.836a1.919,1.919,0,0,1-.195.972,1.859,1.859,0,0,1-.583.583,32.961,32.961,0,0,1-8.03,2.392,56.97,56.97,0,0,1-11.406.972q-9.2,0-15.424-2.851A27.489,27.489,0,0,1,7.258,56.257,29.945,29.945,0,0,1,1.685,45.693,41.594,41.594,0,0,1,0,33.963,40.852,40.852,0,0,1,2.009,21.2,33.349,33.349,0,0,1,8.036,10.18a28.952,28.952,0,0,1,9.721-7.647C21.558.676,26.052.009,31.236.009A29.251,29.251,0,0,1,43.744,2.472a22.044,22.044,0,0,1,8.489,6.412,29.476,29.476,0,0,1,4.8,9.138,32.562,32.562,0,0,1,1.555,9.851q0,2.852-.195,5.184t-.324,3.37A1.174,1.174,0,0,1,56.9,37.463q-.778,0-2.657.194t-4.666.259C47.717,37.961,45.753,37.645,43.679,37.645ZM18.146,25.838H35.125q3.111,0,4.6-.065a4.528,4.528,0,0,0,1.88-.623v-.778a10.369,10.369,0,0,0-.518-2.981A10.588,10.588,0,0,0,30.589,14,11.259,11.259,0,0,0,19.9,20.095,18.747,18.747,0,0,0,18.146,25.838Z" transform="translate(83.301 19.32)" fill="#99f"/>
          </g>
        </g>
      </g>
      <g id="Layer_2-14" data-name="Layer 2" transform="matrix(0.993, 0.122, -0.122, 0.993, 1023.145, 530.36)">
        <g id="Surfaces-14" data-name="Surfaces" transform="translate(0 0)">
          <g id="Video_Audio_Surface-14" data-name="Video/Audio Surface" transform="translate(0 0)">
            <g id="Outline_no_shadow-14" data-name="Outline no shadow">
              <rect id="Rectangle_41-14" data-name="Rectangle 41" width="136.807" height="133.47" rx="42.5" fill="#110c39"/>
            </g>
          </g>
        </g>
        <g id="Outlined_Mnemonics_Logos-14" data-name="Outlined Mnemonics &amp; Logos" transform="translate(16.908 34.283)">
          <g id="Ae-14" data-name="Ae" transform="translate(0 0)">
            <path id="Tracé_10-14" data-name="Tracé 10" d="M38.076,45.581H16.866L12.551,59.012a1.08,1.08,0,0,1-1.1.826H.707q-.919,0-.643-1.01L18.427,6.161c.184-.551.367-1.089.551-1.794A19.615,19.615,0,0,0,19.345.648a.568.568,0,0,1,.643-.643h14.6q.641,0,.735.459L56.163,58.92q.275.919-.551.918H43.676a.849.849,0,0,1-.918-.643Zm-17.9-11.325H34.679q-.551-1.836-1.286-4.132t-1.561-4.912l-1.653-5.233q-.826-2.617-1.515-5.05t-1.239-4.453h-.092A74.042,74.042,0,0,1,25.4,17.821q-1.287,4.132-2.617,8.447T20.172,34.256Z" transform="translate(0 0)" fill="#99f"/>
            <path id="Tracé_11-14" data-name="Tracé 11" d="M30.942,26.667H12.854A12.9,12.9,0,0,0,14.6,31.726a9.446,9.446,0,0,0,4.177,3.443,17.444,17.444,0,0,0,7.3,1.431A33.078,33.078,0,0,0,32,35.95a21.827,21.827,0,0,0,5.092-1.327c.305-.244.459-.092.459.459V43.8a1.359,1.359,0,0,1-.138.689,1.317,1.317,0,0,1-.413.413A23.351,23.351,0,0,1,31.309,46.6a40.358,40.358,0,0,1-8.08.689A26.184,26.184,0,0,1,12.3,45.269a19.473,19.473,0,0,1-7.161-5.417,21.213,21.213,0,0,1-3.948-7.483A29.465,29.465,0,0,1,0,24.059a28.939,28.939,0,0,1,1.423-9.044,23.625,23.625,0,0,1,4.269-7.8,20.51,20.51,0,0,1,6.886-5.417A21.562,21.562,0,0,1,22.128.007a20.721,20.721,0,0,1,8.86,1.744A15.616,15.616,0,0,1,37,6.293a20.881,20.881,0,0,1,3.4,6.473,23.067,23.067,0,0,1,1.1,6.978q0,2.021-.138,3.673T41.134,25.8a.832.832,0,0,1-.826.735q-.551,0-1.882.138t-3.305.184C33.8,26.891,32.411,26.667,30.942,26.667ZM12.854,18.3H24.882q2.2,0,3.259-.046a3.207,3.207,0,0,0,1.332-.441v-.551a7.345,7.345,0,0,0-.367-2.112A7.5,7.5,0,0,0,21.669,9.92a7.976,7.976,0,0,0-7.575,4.315A13.28,13.28,0,0,0,12.854,18.3Z" transform="translate(59.01 13.686)" fill="#99f"/>
          </g>
        </g>
      </g>
      <g id="Layer_2-15" data-name="Layer 2" transform="translate(1054.109 1247.242) rotate(-5)">
        <g id="Surfaces-15" data-name="Surfaces" transform="translate(0 0)">
          <g id="Video_Audio_Surface-15" data-name="Video/Audio Surface" transform="translate(0 0)">
            <g id="Outline_no_shadow-15" data-name="Outline no shadow" transform="translate(0)">
              <rect id="Rectangle_41-15" data-name="Rectangle 41" width="138.312" height="134.938" rx="42.5" fill="#110c39"/>
            </g>
          </g>
        </g>
        <g id="Outlined_Mnemonics_Logos-15" data-name="Outlined Mnemonics &amp; Logos" transform="translate(17.094 34.66)">
          <g id="Ae-15" data-name="Ae" transform="translate(0 0)">
            <path id="Tracé_10-15" data-name="Tracé 10" d="M38.494,46.082H17.052L12.689,59.661a1.092,1.092,0,0,1-1.114.835H.714q-.929,0-.65-1.021L18.63,6.228c.186-.557.371-1.1.557-1.814A19.831,19.831,0,0,0,19.558.656a.575.575,0,0,1,.65-.65H34.967q.648,0,.743.464l21.071,59.1q.278.929-.557.928H44.157a.858.858,0,0,1-.928-.65Zm-18.1-11.449H35.06q-.557-1.856-1.3-4.177T32.182,25.49L30.511,20.2q-.835-2.645-1.532-5.105t-1.253-4.5h-.093a74.861,74.861,0,0,1-1.949,7.426q-1.3,4.177-2.645,8.54T20.393,34.633Z" transform="translate(0 0)" fill="#99f"/>
            <path id="Tracé_11-15" data-name="Tracé 11" d="M31.282,26.961H13a13.04,13.04,0,0,0,1.764,5.114,9.55,9.55,0,0,0,4.223,3.481A17.636,17.636,0,0,0,26.363,37a33.441,33.441,0,0,0,5.987-.657A22.068,22.068,0,0,0,37.5,35c.309-.246.464-.093.464.464v8.818a1.375,1.375,0,0,1-.139.7,1.331,1.331,0,0,1-.418.418,23.606,23.606,0,0,1-5.751,1.713,40.8,40.8,0,0,1-8.169.7,26.471,26.471,0,0,1-11.046-2.042A19.687,19.687,0,0,1,5.2,40.29a21.447,21.447,0,0,1-3.992-7.565A29.79,29.79,0,0,1,0,24.324a29.258,29.258,0,0,1,1.439-9.143,23.884,23.884,0,0,1,4.316-7.89,20.735,20.735,0,0,1,6.962-5.477A21.8,21.8,0,0,1,22.371.007,20.949,20.949,0,0,1,31.329,1.77a15.787,15.787,0,0,1,6.08,4.592,21.111,21.111,0,0,1,3.435,6.544,23.321,23.321,0,0,1,1.114,7.055q0,2.043-.139,3.713t-.232,2.413a.841.841,0,0,1-.836.743q-.557,0-1.9.139t-3.342.186C34.174,27.187,32.768,26.961,31.282,26.961ZM13,18.5h12.16q2.228,0,3.3-.046a3.243,3.243,0,0,0,1.346-.446v-.557a7.426,7.426,0,0,0-.371-2.135,7.583,7.583,0,0,0-7.519-5.291,8.064,8.064,0,0,0-7.658,4.363A13.427,13.427,0,0,0,13,18.5Z" transform="translate(59.659 13.836)" fill="#99f"/>
          </g>
        </g>
      </g>
      <g id="Layer_2-16" data-name="Layer 2" transform="matrix(0.951, 0.309, -0.309, 0.951, 1180.341, 0)">
        <g id="Surfaces-16" data-name="Surfaces" transform="translate(0 0)">
          <g id="Video_Audio_Surface-16" data-name="Video/Audio Surface" transform="translate(0 0)">
            <g id="Outline_no_shadow-16" data-name="Outline no shadow">
              <rect id="Rectangle_41-16" data-name="Rectangle 41" width="246.926" height="240.903" rx="42.5" fill="#110c39"/>
            </g>
          </g>
        </g>
        <g id="Outlined_Mnemonics_Logos-16" data-name="Outlined Mnemonics &amp; Logos" transform="translate(30.518 61.878)">
          <g id="Ae-16" data-name="Ae" transform="translate(0 0)">
            <path id="Tracé_10-16" data-name="Tracé 10" d="M68.724,82.27H30.442l-7.789,24.241A1.949,1.949,0,0,1,20.664,108H1.275q-1.659,0-1.16-1.823L33.259,11.12c.331-.994.663-1.966.994-3.238a35.4,35.4,0,0,0,.663-6.711A1.026,1.026,0,0,1,36.076.01h26.35q1.157,0,1.326.829L101.37,106.345q.5,1.659-.994,1.657H78.832a1.532,1.532,0,0,1-1.657-1.16ZM36.408,61.83H62.592q-.994-3.313-2.32-7.458t-2.817-8.866L54.471,36.06q-1.491-4.723-2.735-9.115T49.5,18.908h-.166a133.648,133.648,0,0,1-3.48,13.257q-2.323,7.458-4.723,15.246T36.408,61.83Z" transform="translate(0 0)" fill="#99f"/>
            <path id="Tracé_11-16" data-name="Tracé 11" d="M55.848,48.132H23.2a23.28,23.28,0,0,0,3.149,9.131,17.05,17.05,0,0,0,7.54,6.214A31.486,31.486,0,0,0,47.065,66.06a59.7,59.7,0,0,0,10.689-1.174,39.4,39.4,0,0,0,9.19-2.4c.551-.44.829-.166.829.829V79.063a2.454,2.454,0,0,1-.249,1.243,2.377,2.377,0,0,1-.746.746A42.145,42.145,0,0,1,56.511,84.11a72.838,72.838,0,0,1-14.583,1.243q-11.769,0-19.721-3.646A35.148,35.148,0,0,1,9.281,71.929,38.288,38.288,0,0,1,2.154,58.423,53.184,53.184,0,0,1,0,43.425,52.233,52.233,0,0,1,2.569,27.1a42.639,42.639,0,0,1,7.706-14.086A37.018,37.018,0,0,1,22.7,3.238C27.564.864,33.31.012,39.939.012A37.4,37.4,0,0,1,55.931,3.16a28.185,28.185,0,0,1,10.855,8.2,37.689,37.689,0,0,1,6.132,11.683,41.635,41.635,0,0,1,1.989,12.595q0,3.647-.249,6.629t-.414,4.309A1.5,1.5,0,0,1,72.751,47.9q-.994,0-3.4.249t-5.966.331C61.011,48.537,58.5,48.132,55.848,48.132ZM23.2,33.036H44.91q3.977,0,5.883-.083a5.789,5.789,0,0,0,2.4-.8v-.994a13.257,13.257,0,0,0-.663-3.811A13.538,13.538,0,0,0,39.11,17.9a14.4,14.4,0,0,0-13.672,7.789A23.969,23.969,0,0,0,23.2,33.036Z" transform="translate(106.509 24.702)" fill="#99f"/>
          </g>
        </g>
      </g>
      <g id="Layer_2-17" data-name="Layer 2" transform="translate(0 1500.811) rotate(-10)">
        <g id="Surfaces-17" data-name="Surfaces" transform="translate(0 0)">
          <g id="Video_Audio_Surface-17" data-name="Video/Audio Surface" transform="translate(0 0)">
            <g id="Outline_no_shadow-17" data-name="Outline no shadow">
              <rect id="Rectangle_41-17" data-name="Rectangle 41" width="165.147" height="161.119" rx="42.5" fill="#110c39"/>
            </g>
          </g>
        </g>
        <g id="Outlined_Mnemonics_Logos-17" data-name="Outlined Mnemonics &amp; Logos" transform="translate(20.411 41.384)">
          <g id="Ae-17" data-name="Ae" transform="translate(0 0)">
            <path id="Tracé_10-17" data-name="Tracé 10" d="M45.963,55.023H20.36L15.151,71.236a1.3,1.3,0,0,1-1.33,1H.853q-1.109,0-.776-1.219L22.244,7.437c.222-.665.443-1.315.665-2.165A23.679,23.679,0,0,0,23.353.783a.686.686,0,0,1,.776-.776H41.751q.774,0,.887.554L67.8,71.125q.332,1.109-.665,1.108H52.724a1.024,1.024,0,0,1-1.108-.776ZM24.35,41.353H41.862q-.665-2.216-1.552-4.988t-1.884-5.93l-2-6.318q-1-3.159-1.829-6.1t-1.5-5.375H33a89.384,89.384,0,0,1-2.327,8.867q-1.554,4.988-3.159,10.2T24.35,41.353Z" transform="translate(0 0)" fill="#99f"/>
            <path id="Tracé_11-17" data-name="Tracé 11" d="M37.352,32.192H15.517A15.57,15.57,0,0,0,17.623,38.3a11.4,11.4,0,0,0,5.043,4.156,21.058,21.058,0,0,0,8.812,1.727,39.93,39.93,0,0,0,7.149-.785,26.348,26.348,0,0,0,6.146-1.6c.369-.294.554-.111.554.554V52.878a1.641,1.641,0,0,1-.166.831,1.59,1.59,0,0,1-.5.5,28.187,28.187,0,0,1-6.867,2.046,48.714,48.714,0,0,1-9.754.831,31.607,31.607,0,0,1-13.189-2.438,23.507,23.507,0,0,1-8.645-6.539,25.607,25.607,0,0,1-4.766-9.033A35.569,35.569,0,0,1,0,29.043,34.935,34.935,0,0,1,1.718,18.126,28.518,28.518,0,0,1,6.872,8.705a24.758,24.758,0,0,1,8.313-6.539C18.435.578,22.278.008,26.711.008a25.014,25.014,0,0,1,10.7,2.106A18.851,18.851,0,0,1,44.667,7.6a25.209,25.209,0,0,1,4.1,7.814,27.848,27.848,0,0,1,1.33,8.424q0,2.439-.166,4.433t-.277,2.882a1,1,0,0,1-1,.887q-.665,0-2.272.166t-3.99.222C40.8,32.462,39.125,32.192,37.352,32.192Zm-21.834-10.1H30.036q2.66,0,3.935-.055a3.872,3.872,0,0,0,1.607-.533v-.665a8.868,8.868,0,0,0-.443-2.549,9.055,9.055,0,0,0-8.978-6.318,9.628,9.628,0,0,0-9.144,5.209A16.031,16.031,0,0,0,15.517,22.095Z" transform="translate(71.234 16.521)" fill="#99f"/>
          </g>
        </g>
      </g>
    </g>
  </g>
</svg>
