<svg xmlns="http://www.w3.org/2000/svg" width="1480.152" height="2761.174" viewBox="0 0 1480.152 2761.174">
  <g id="BACKKKK" transform="translate(99.147 -664.343)">
    <g id="Background" transform="translate(59.192 727.542)">
      <g id="Layer_2" data-name="Layer 2" transform="translate(964.953 1585.074) rotate(8)">
        <g id="Surfaces" transform="translate(0 0)">
          <g id="Video_Audio_Surface" data-name="Video/Audio Surface" transform="translate(0 0)">
            <g id="Outline_no_shadow" data-name="Outline no shadow">
              <rect id="Rectangle_41" data-name="Rectangle 41" width="235.487" height="229.743" rx="42.5" fill="#110c39"/>
            </g>
          </g>
        </g>
        <g id="Outlined_Mnemonics_Logos" data-name="Outlined Mnemonics &amp; Logos" transform="translate(29.104 59.011)">
          <g id="Ae" transform="translate(0)">
            <path id="Tracé_10" data-name="Tracé 10" d="M65.54,78.459H29.032L21.6,101.577a1.859,1.859,0,0,1-1.9,1.422H1.216q-1.582,0-1.106-1.738L31.719,10.6c.316-.948.632-1.875.948-3.088a33.763,33.763,0,0,0,.632-6.4A.978.978,0,0,1,34.405.01H59.534q1.1,0,1.264.79L96.674,101.419Q97.148,103,95.726,103H75.18a1.461,1.461,0,0,1-1.58-1.106ZM34.722,58.966H59.692q-.948-3.16-2.213-7.112T54.793,43.4L51.948,34.39q-1.422-4.5-2.608-8.692t-2.133-7.665h-.158A127.453,127.453,0,0,1,43.73,30.676q-2.215,7.112-4.5,14.54T34.722,58.966Z" transform="translate(0)" fill="#99f"/>
            <path id="Tracé_11" data-name="Tracé 11" d="M53.261,45.9H22.126a22.2,22.2,0,0,0,3,8.708,16.26,16.26,0,0,0,7.191,5.926A30.027,30.027,0,0,0,44.885,63,56.937,56.937,0,0,0,55.078,61.88,37.571,37.571,0,0,0,63.842,59.6c.526-.42.79-.158.79.79V75.4a2.34,2.34,0,0,1-.237,1.185,2.267,2.267,0,0,1-.711.711,40.191,40.191,0,0,1-9.791,2.917A69.466,69.466,0,0,1,39.985,81.4q-11.224,0-18.807-3.477A33.519,33.519,0,0,1,8.851,68.6a36.514,36.514,0,0,1-6.8-12.881A50.719,50.719,0,0,1,0,41.414,49.813,49.813,0,0,1,2.45,25.847,40.664,40.664,0,0,1,9.8,12.413,35.3,35.3,0,0,1,21.652,3.088C26.287.824,31.767.011,38.088.011a35.667,35.667,0,0,1,15.251,3,26.879,26.879,0,0,1,10.352,7.818,35.942,35.942,0,0,1,5.848,11.142,39.705,39.705,0,0,1,1.9,12.011q0,3.478-.237,6.322T70.8,44.417a1.432,1.432,0,0,1-1.423,1.264q-.948,0-3.24.237t-5.689.316C58.185,46.288,55.789,45.9,53.261,45.9Zm-31.134-14.4h20.7q3.793,0,5.61-.079a5.521,5.521,0,0,0,2.292-.76v-.948a12.643,12.643,0,0,0-.632-3.635,12.911,12.911,0,0,0-12.8-9.008A13.729,13.729,0,0,0,24.26,24.5,22.86,22.86,0,0,0,22.126,31.505Z" transform="translate(101.575 23.558)" fill="#99f"/>
          </g>
        </g>
      </g>
      <g id="Layer_2-2" data-name="Layer 2" transform="translate(31.974 2321.14) rotate(8)">
        <g id="Surfaces-2" data-name="Surfaces" transform="translate(0 0)">
          <g id="Video_Audio_Surface-2" data-name="Video/Audio Surface" transform="translate(0 0)">
            <g id="Outline_no_shadow-2" data-name="Outline no shadow">
              <rect id="Rectangle_41-2" data-name="Rectangle 41" width="235.487" height="229.743" rx="42.5" fill="#110c39"/>
            </g>
          </g>
        </g>
        <g id="Outlined_Mnemonics_Logos-2" data-name="Outlined Mnemonics &amp; Logos" transform="translate(29.104 59.011)">
          <g id="Ae-2" data-name="Ae" transform="translate(0 0)">
            <path id="Tracé_10-2" data-name="Tracé 10" d="M65.54,78.459H29.032L21.6,101.577a1.859,1.859,0,0,1-1.9,1.422H1.216q-1.582,0-1.106-1.738L31.719,10.6c.316-.948.632-1.875.948-3.088a33.763,33.763,0,0,0,.632-6.4A.978.978,0,0,1,34.405.01H59.534q1.1,0,1.264.79L96.674,101.419Q97.148,103,95.726,103H75.18a1.461,1.461,0,0,1-1.58-1.106ZM34.722,58.966H59.692q-.948-3.16-2.213-7.112T54.793,43.4L51.948,34.39q-1.422-4.5-2.608-8.692t-2.133-7.665h-.158A127.453,127.453,0,0,1,43.73,30.676q-2.215,7.112-4.5,14.54T34.722,58.966Z" transform="translate(0 0)" fill="#99f"/>
            <path id="Tracé_11-2" data-name="Tracé 11" d="M53.261,45.9H22.126a22.2,22.2,0,0,0,3,8.708,16.26,16.26,0,0,0,7.191,5.926A30.027,30.027,0,0,0,44.885,63,56.937,56.937,0,0,0,55.078,61.88,37.571,37.571,0,0,0,63.842,59.6c.526-.42.79-.158.79.79V75.4a2.34,2.34,0,0,1-.237,1.185,2.267,2.267,0,0,1-.711.711,40.191,40.191,0,0,1-9.791,2.917A69.466,69.466,0,0,1,39.985,81.4q-11.224,0-18.807-3.477A33.519,33.519,0,0,1,8.851,68.6a36.514,36.514,0,0,1-6.8-12.881A50.719,50.719,0,0,1,0,41.414,49.813,49.813,0,0,1,2.45,25.847,40.664,40.664,0,0,1,9.8,12.413,35.3,35.3,0,0,1,21.652,3.088C26.287.824,31.767.011,38.088.011a35.667,35.667,0,0,1,15.251,3,26.879,26.879,0,0,1,10.352,7.818,35.942,35.942,0,0,1,5.848,11.142,39.705,39.705,0,0,1,1.9,12.011q0,3.478-.237,6.322T70.8,44.417a1.432,1.432,0,0,1-1.423,1.264q-.948,0-3.24.237t-5.689.316C58.185,46.288,55.789,45.9,53.261,45.9Zm-31.134-14.4h20.7q3.793,0,5.61-.079a5.521,5.521,0,0,0,2.292-.76v-.948a12.643,12.643,0,0,0-.632-3.635,12.911,12.911,0,0,0-12.8-9.008A13.729,13.729,0,0,0,24.26,24.5,22.86,22.86,0,0,0,22.126,31.505Z" transform="translate(101.575 23.558)" fill="#99f"/>
          </g>
        </g>
      </g>
      <g id="Layer_2-3" data-name="Layer 2" transform="matrix(0.921, -0.391, 0.391, 0.921, 181.693, 1899.039)">
        <g id="Surfaces-3" data-name="Surfaces" transform="translate(0 0)">
          <g id="Video_Audio_Surface-3" data-name="Video/Audio Surface" transform="translate(0 0)">
            <g id="Outline_no_shadow-3" data-name="Outline no shadow" transform="translate(0)">
              <rect id="Rectangle_41-3" data-name="Rectangle 41" width="167.438" height="163.354" rx="42.5" fill="#110c39"/>
            </g>
          </g>
        </g>
        <g id="Outlined_Mnemonics_Logos-3" data-name="Outlined Mnemonics &amp; Logos" transform="translate(20.694 41.959)">
          <g id="Ae-3" data-name="Ae" transform="translate(0 0)">
            <path id="Tracé_10-3" data-name="Tracé 10" d="M46.6,55.786H20.642L15.361,72.224a1.322,1.322,0,0,1-1.349,1.011H.865Q-.26,73.236.078,72L22.553,7.54c.225-.674.449-1.333.674-2.2A24.007,24.007,0,0,0,23.676.794a.7.7,0,0,1,.787-.787H42.331q.785,0,.9.562L68.738,72.112q.337,1.125-.674,1.124H53.455a1.039,1.039,0,0,1-1.124-.787ZM24.688,41.926H42.443q-.674-2.247-1.574-5.057t-1.91-6.012l-2.023-6.405q-1.011-3.2-1.854-6.181t-1.517-5.45h-.112a90.624,90.624,0,0,1-2.36,8.99q-1.575,5.057-3.2,10.338T24.688,41.926Z" transform="translate(0 0)" fill="#99f"/>
            <path id="Tracé_11-3" data-name="Tracé 11" d="M37.87,32.638H15.732a15.786,15.786,0,0,0,2.135,6.191,11.561,11.561,0,0,0,5.113,4.214,21.35,21.35,0,0,0,8.934,1.751,40.484,40.484,0,0,0,7.248-.8,26.714,26.714,0,0,0,6.232-1.624c.374-.3.562-.112.562.562V53.612a1.664,1.664,0,0,1-.169.843,1.612,1.612,0,0,1-.506.506,28.577,28.577,0,0,1-6.962,2.074,49.392,49.392,0,0,1-9.889.843A32.046,32.046,0,0,1,15.058,55.4a23.833,23.833,0,0,1-8.765-6.63,25.962,25.962,0,0,1-4.832-9.158A36.062,36.062,0,0,1,0,29.446,35.419,35.419,0,0,1,1.742,18.378,28.914,28.914,0,0,1,6.967,8.826,25.1,25.1,0,0,1,15.4,2.2C18.691.586,22.587.008,27.082.008A25.361,25.361,0,0,1,37.926,2.143,19.112,19.112,0,0,1,45.286,7.7a25.556,25.556,0,0,1,4.158,7.922,28.232,28.232,0,0,1,1.349,8.54q0,2.473-.169,4.495t-.281,2.922a1.018,1.018,0,0,1-1.011.9q-.674,0-2.3.169t-4.045.225C41.371,32.912,39.668,32.638,37.87,32.638ZM15.732,22.4H30.453q2.7,0,3.989-.056a3.925,3.925,0,0,0,1.63-.54v-.674a8.99,8.99,0,0,0-.449-2.585,9.18,9.18,0,0,0-9.1-6.405,9.762,9.762,0,0,0-9.271,5.281A16.254,16.254,0,0,0,15.732,22.4Z" transform="translate(72.222 16.75)" fill="#99f"/>
          </g>
        </g>
      </g>
      <g id="Layer_2-4" data-name="Layer 2" transform="translate(656.503 1982.031) rotate(-8)">
        <g id="Surfaces-4" data-name="Surfaces" transform="translate(0 0)">
          <g id="Video_Audio_Surface-4" data-name="Video/Audio Surface" transform="translate(0 0)">
            <g id="Outline_no_shadow-4" data-name="Outline no shadow">
              <rect id="Rectangle_41-4" data-name="Rectangle 41" width="148.168" height="144.554" rx="42.5" fill="#110c39"/>
            </g>
          </g>
        </g>
        <g id="Outlined_Mnemonics_Logos-4" data-name="Outlined Mnemonics &amp; Logos" transform="translate(18.312 37.13)">
          <g id="Ae-4" data-name="Ae" transform="translate(0 0)">
            <path id="Tracé_10-4" data-name="Tracé 10" d="M41.238,49.366H18.267L13.593,63.912a1.17,1.17,0,0,1-1.193.895H.765q-1,0-.7-1.094L19.957,6.672c.2-.6.4-1.18.6-1.943A21.244,21.244,0,0,0,20.952.7a.616.616,0,0,1,.7-.7H37.459q.694,0,.8.5L60.827,63.812q.3,1-.6.994H47.3a.919.919,0,0,1-.994-.7ZM21.847,37.1H37.558q-.6-1.988-1.392-4.475t-1.69-5.32l-1.79-5.668q-.895-2.834-1.641-5.469T29.7,11.346h-.1A80.193,80.193,0,0,1,27.515,19.3q-1.394,4.475-2.834,9.148T21.847,37.1Z" fill="#99f"/>
            <path id="Tracé_11-4" data-name="Tracé 11" d="M33.511,28.882H13.922a13.969,13.969,0,0,0,1.889,5.479,10.231,10.231,0,0,0,4.524,3.729,18.893,18.893,0,0,0,7.906,1.55,35.825,35.825,0,0,0,6.414-.7A23.64,23.64,0,0,0,40.169,37.5c.331-.264.5-.1.5.5v9.447a1.472,1.472,0,0,1-.149.746,1.426,1.426,0,0,1-.448.447,25.287,25.287,0,0,1-6.161,1.835,43.706,43.706,0,0,1-8.751.746,28.357,28.357,0,0,1-11.833-2.188,21.09,21.09,0,0,1-7.756-5.867,22.974,22.974,0,0,1-4.276-8.1,31.913,31.913,0,0,1-1.293-9,31.342,31.342,0,0,1,1.541-9.795A25.586,25.586,0,0,1,6.165,7.81a22.213,22.213,0,0,1,7.458-5.867A23.352,23.352,0,0,1,23.965.007a22.442,22.442,0,0,1,9.6,1.889,16.912,16.912,0,0,1,6.513,4.919,22.615,22.615,0,0,1,3.679,7.011,24.982,24.982,0,0,1,1.193,7.557q0,2.188-.149,3.978t-.248,2.585a.9.9,0,0,1-.9.8q-.6,0-2.038.149t-3.58.2C36.61,29.124,35.1,28.882,33.511,28.882Zm-19.59-9.059H26.948q2.387,0,3.53-.05a3.474,3.474,0,0,0,1.442-.478v-.6a7.955,7.955,0,0,0-.4-2.287,8.124,8.124,0,0,0-8.055-5.668,8.638,8.638,0,0,0-8.2,4.674A14.384,14.384,0,0,0,13.922,19.823Z" transform="translate(63.91 14.822)" fill="#99f"/>
          </g>
        </g>
      </g>
      <g id="Layer_2-5" data-name="Layer 2" transform="matrix(0.993, 0.122, -0.122, 0.993, 929.776, 508.908)">
        <g id="Surfaces-5" data-name="Surfaces" transform="translate(0 0)">
          <g id="Video_Audio_Surface-5" data-name="Video/Audio Surface" transform="translate(0)">
            <g id="Outline_no_shadow-5" data-name="Outline no shadow">
              <rect id="Rectangle_41-5" data-name="Rectangle 41" width="136.807" height="133.47" rx="42.5" fill="#110c39"/>
            </g>
          </g>
        </g>
        <g id="Outlined_Mnemonics_Logos-5" data-name="Outlined Mnemonics &amp; Logos" transform="translate(16.908 34.283)">
          <g id="Ae-5" data-name="Ae" transform="translate(0 0)">
            <path id="Tracé_10-5" data-name="Tracé 10" d="M38.076,45.581H16.866L12.551,59.012a1.08,1.08,0,0,1-1.1.826H.707q-.919,0-.643-1.01L18.427,6.161c.184-.551.367-1.089.551-1.794A19.615,19.615,0,0,0,19.345.648a.568.568,0,0,1,.643-.643h14.6q.641,0,.735.459L56.163,58.92q.275.919-.551.918H43.676a.849.849,0,0,1-.918-.643Zm-17.9-11.325H34.679q-.551-1.836-1.286-4.132t-1.561-4.912l-1.653-5.233q-.826-2.617-1.515-5.05t-1.239-4.453h-.092A74.042,74.042,0,0,1,25.4,17.821q-1.287,4.132-2.617,8.447T20.172,34.256Z" transform="translate(0 0)" fill="#99f"/>
            <path id="Tracé_11-5" data-name="Tracé 11" d="M30.942,26.667H12.854A12.9,12.9,0,0,0,14.6,31.726a9.446,9.446,0,0,0,4.177,3.443,17.444,17.444,0,0,0,7.3,1.431A33.078,33.078,0,0,0,32,35.95a21.827,21.827,0,0,0,5.092-1.327c.305-.244.459-.092.459.459V43.8a1.359,1.359,0,0,1-.138.689,1.317,1.317,0,0,1-.413.413A23.351,23.351,0,0,1,31.309,46.6a40.358,40.358,0,0,1-8.08.689A26.184,26.184,0,0,1,12.3,45.269a19.473,19.473,0,0,1-7.161-5.417,21.213,21.213,0,0,1-3.948-7.483A29.465,29.465,0,0,1,0,24.059a28.939,28.939,0,0,1,1.423-9.044,23.625,23.625,0,0,1,4.269-7.8,20.51,20.51,0,0,1,6.886-5.417A21.562,21.562,0,0,1,22.128.007a20.721,20.721,0,0,1,8.86,1.744A15.616,15.616,0,0,1,37,6.293a20.881,20.881,0,0,1,3.4,6.473,23.067,23.067,0,0,1,1.1,6.978q0,2.021-.138,3.673T41.134,25.8a.832.832,0,0,1-.826.735q-.551,0-1.882.138t-3.305.184C33.8,26.891,32.411,26.667,30.942,26.667ZM12.854,18.3H24.882q2.2,0,3.259-.046a3.207,3.207,0,0,0,1.332-.441v-.551a7.345,7.345,0,0,0-.367-2.112A7.5,7.5,0,0,0,21.669,9.92a7.976,7.976,0,0,0-7.575,4.315A13.28,13.28,0,0,0,12.854,18.3Z" transform="translate(59.01 13.686)" fill="#99f"/>
          </g>
        </g>
      </g>
      <g id="Layer_2-6" data-name="Layer 2" transform="matrix(0.951, 0.309, -0.309, 0.951, 1086.972, 0)">
        <g id="Surfaces-6" data-name="Surfaces" transform="translate(0 0)">
          <g id="Video_Audio_Surface-6" data-name="Video/Audio Surface">
            <g id="Outline_no_shadow-6" data-name="Outline no shadow">
              <rect id="Rectangle_41-6" data-name="Rectangle 41" width="246.926" height="240.903" rx="42.5" fill="#110c39"/>
            </g>
          </g>
        </g>
        <g id="Outlined_Mnemonics_Logos-6" data-name="Outlined Mnemonics &amp; Logos" transform="translate(30.518 61.878)">
          <g id="Ae-6" data-name="Ae" transform="translate(0 0)">
            <path id="Tracé_10-6" data-name="Tracé 10" d="M68.724,82.27H30.442l-7.789,24.241A1.949,1.949,0,0,1,20.664,108H1.275q-1.659,0-1.16-1.823L33.259,11.12c.331-.994.663-1.966.994-3.238a35.4,35.4,0,0,0,.663-6.711A1.026,1.026,0,0,1,36.076.01h26.35q1.157,0,1.326.829L101.37,106.345q.5,1.659-.994,1.657H78.832a1.532,1.532,0,0,1-1.657-1.16ZM36.408,61.83H62.592q-.994-3.313-2.32-7.458t-2.817-8.866L54.471,36.06q-1.491-4.723-2.735-9.115T49.5,18.908h-.166a133.648,133.648,0,0,1-3.48,13.257q-2.323,7.458-4.723,15.246T36.408,61.83Z" fill="#99f"/>
            <path id="Tracé_11-6" data-name="Tracé 11" d="M55.848,48.132H23.2a23.28,23.28,0,0,0,3.149,9.131,17.05,17.05,0,0,0,7.54,6.214A31.486,31.486,0,0,0,47.065,66.06a59.7,59.7,0,0,0,10.689-1.174,39.4,39.4,0,0,0,9.19-2.4c.551-.44.829-.166.829.829V79.063a2.454,2.454,0,0,1-.249,1.243,2.377,2.377,0,0,1-.746.746A42.145,42.145,0,0,1,56.511,84.11a72.838,72.838,0,0,1-14.583,1.243q-11.769,0-19.721-3.646A35.148,35.148,0,0,1,9.281,71.929,38.288,38.288,0,0,1,2.154,58.423,53.184,53.184,0,0,1,0,43.425,52.233,52.233,0,0,1,2.569,27.1a42.639,42.639,0,0,1,7.706-14.086A37.018,37.018,0,0,1,22.7,3.238C27.564.864,33.31.012,39.939.012A37.4,37.4,0,0,1,55.931,3.16a28.185,28.185,0,0,1,10.855,8.2,37.689,37.689,0,0,1,6.132,11.683,41.635,41.635,0,0,1,1.989,12.595q0,3.647-.249,6.629t-.414,4.309A1.5,1.5,0,0,1,72.751,47.9q-.994,0-3.4.249t-5.966.331C61.011,48.537,58.5,48.132,55.848,48.132ZM23.2,33.036H44.91q3.977,0,5.883-.083a5.789,5.789,0,0,0,2.4-.8v-.994a13.257,13.257,0,0,0-.663-3.811A13.538,13.538,0,0,0,39.11,17.9a14.4,14.4,0,0,0-13.672,7.789A23.969,23.969,0,0,0,23.2,33.036Z" transform="translate(106.509 24.702)" fill="#99f"/>
          </g>
        </g>
      </g>
      <g id="Layer_2-7" data-name="Layer 2" transform="translate(77.585 501.397) rotate(-10)">
        <g id="Surfaces-7" data-name="Surfaces" transform="translate(0 0)">
          <g id="Video_Audio_Surface-7" data-name="Video/Audio Surface">
            <g id="Outline_no_shadow-7" data-name="Outline no shadow">
              <rect id="Rectangle_41-7" data-name="Rectangle 41" width="180.396" height="175.996" rx="42.5" fill="#110c39"/>
            </g>
          </g>
        </g>
        <g id="Outlined_Mnemonics_Logos-7" data-name="Outlined Mnemonics &amp; Logos" transform="translate(22.295 45.206)">
          <g id="Ae-7" data-name="Ae">
            <path id="Tracé_10-7" data-name="Tracé 10" d="M50.207,60.1H22.24l-5.69,17.71A1.424,1.424,0,0,1,15.1,78.9H.932q-1.212,0-.847-1.332L24.3,8.124c.242-.726.484-1.436.726-2.365a25.865,25.865,0,0,0,.484-4.9.749.749,0,0,1,.847-.848h19.25q.845,0,.969.605l27.483,77.08q.363,1.212-.726,1.211H57.592a1.119,1.119,0,0,1-1.211-.847ZM26.6,45.171H45.728q-.726-2.42-1.7-5.448t-2.058-6.477l-2.179-6.9q-1.089-3.45-2-6.659t-1.634-5.872h-.121A97.639,97.639,0,0,1,33.5,23.5q-1.7,5.448-3.45,11.138T26.6,45.171Z" transform="translate(0)" fill="#99f"/>
            <path id="Tracé_11-7" data-name="Tracé 11" d="M40.8,35.164H16.95a17.008,17.008,0,0,0,2.3,6.671,12.456,12.456,0,0,0,5.508,4.54,23,23,0,0,0,9.625,1.887,43.617,43.617,0,0,0,7.809-.857,28.78,28.78,0,0,0,6.714-1.75c.4-.321.605-.121.605.605v11.5a1.793,1.793,0,0,1-.182.908,1.737,1.737,0,0,1-.545.545,30.789,30.789,0,0,1-7.5,2.235,53.212,53.212,0,0,1-10.654.908,34.525,34.525,0,0,1-14.407-2.664A25.677,25.677,0,0,1,6.78,52.549a27.971,27.971,0,0,1-5.206-9.867A38.854,38.854,0,0,1,0,31.725,38.161,38.161,0,0,1,1.877,19.8,31.151,31.151,0,0,1,7.506,9.509a27.045,27.045,0,0,1,9.08-7.143C20.138.631,24.335.009,29.178.009a27.323,27.323,0,0,1,11.683,2.3A20.591,20.591,0,0,1,48.791,8.3a27.536,27.536,0,0,1,4.48,8.535,30.419,30.419,0,0,1,1.453,9.2q0,2.664-.182,4.843t-.3,3.148a1.1,1.1,0,0,1-1.09.969q-.726,0-2.482.182t-4.358.242C44.573,35.459,42.738,35.164,40.8,35.164ZM16.95,24.135H32.81q2.906,0,4.3-.061a4.229,4.229,0,0,0,1.756-.582v-.726a9.687,9.687,0,0,0-.484-2.785,9.891,9.891,0,0,0-9.807-6.9,10.517,10.517,0,0,0-9.988,5.69A17.512,17.512,0,0,0,16.95,24.135Z" transform="translate(77.812 18.046)" fill="#99f"/>
          </g>
        </g>
      </g>
    </g>
    <g id="Background-2" data-name="Background" transform="translate(-99.147 665.48)">
      <g id="Layer_2-8" data-name="Layer 2" transform="translate(193.798 987.108) rotate(8)">
        <g id="Surfaces-8" data-name="Surfaces" transform="translate(0 0)">
          <g id="Video_Audio_Surface-8" data-name="Video/Audio Surface" transform="translate(0)">
            <g id="Outline_no_shadow-8" data-name="Outline no shadow">
              <rect id="Rectangle_41-8" data-name="Rectangle 41" width="181.546" height="177.118" rx="42.5" fill="#110c39"/>
            </g>
          </g>
        </g>
        <g id="Outlined_Mnemonics_Logos-8" data-name="Outlined Mnemonics &amp; Logos" transform="translate(22.438 45.494)">
          <g id="Ae-8" data-name="Ae" transform="translate(0)">
            <path id="Tracé_10-8" data-name="Tracé 10" d="M50.527,60.487H22.382L16.655,78.31a1.433,1.433,0,0,1-1.462,1.1H.938q-1.219,0-.853-1.34L24.453,8.175c.244-.731.487-1.446.731-2.38A26.03,26.03,0,0,0,25.671.861a.754.754,0,0,1,.853-.853H45.9q.851,0,.975.609L74.53,78.188q.365,1.219-.731,1.219H57.959a1.126,1.126,0,0,1-1.218-.853ZM26.768,45.459H46.019q-.731-2.436-1.706-5.483t-2.071-6.519l-2.193-6.945q-1.1-3.472-2.011-6.7T36.393,13.9h-.122a98.259,98.259,0,0,1-2.559,9.747q-1.708,5.483-3.472,11.209T26.768,45.459Z" fill="#99f"/>
            <path id="Tracé_11-8" data-name="Tracé 11" d="M41.061,35.388h-24A17.116,17.116,0,0,0,19.373,42.1a12.535,12.535,0,0,0,5.544,4.569,23.149,23.149,0,0,0,9.687,1.9,43.9,43.9,0,0,0,7.859-.863,28.965,28.965,0,0,0,6.757-1.761c.405-.324.609-.122.609.609V58.129a1.8,1.8,0,0,1-.183.914,1.748,1.748,0,0,1-.548.548,30.985,30.985,0,0,1-7.549,2.249,53.554,53.554,0,0,1-10.722.914,34.746,34.746,0,0,1-14.5-2.681,25.841,25.841,0,0,1-9.5-7.189,28.15,28.15,0,0,1-5.239-9.93A39.1,39.1,0,0,1,0,31.927a38.4,38.4,0,0,1,1.889-12A31.35,31.35,0,0,1,7.554,9.57a27.217,27.217,0,0,1,9.138-7.189C20.266.635,24.49.009,29.364.009A27.5,27.5,0,0,1,41.122,2.324,20.722,20.722,0,0,1,49.1,8.351a27.709,27.709,0,0,1,4.508,8.59,30.611,30.611,0,0,1,1.462,9.26q0,2.681-.183,4.874t-.3,3.168a1.1,1.1,0,0,1-1.1.975q-.731,0-2.5.183t-4.386.244C44.857,35.685,43.01,35.388,41.061,35.388Zm-24-11.1H33.019q2.924,0,4.325-.061a4.256,4.256,0,0,0,1.767-.586v-.731a9.747,9.747,0,0,0-.487-2.8,9.954,9.954,0,0,0-9.869-6.945A10.584,10.584,0,0,0,18.7,18.89,17.623,17.623,0,0,0,17.058,24.289Z" transform="translate(78.308 18.161)" fill="#99f"/>
          </g>
        </g>
      </g>
      <g id="Layer_2-9" data-name="Layer 2" transform="translate(1021.324 1202.009) rotate(-5)">
        <g id="Surfaces-9" data-name="Surfaces" transform="translate(0 0)">
          <g id="Video_Audio_Surface-9" data-name="Video/Audio Surface" transform="translate(0 0)">
            <g id="Outline_no_shadow-9" data-name="Outline no shadow">
              <rect id="Rectangle_41-9" data-name="Rectangle 41" width="138.312" height="134.938" rx="42.5" fill="#110c39"/>
            </g>
          </g>
        </g>
        <g id="Outlined_Mnemonics_Logos-9" data-name="Outlined Mnemonics &amp; Logos" transform="translate(17.094 34.66)">
          <g id="Ae-9" data-name="Ae">
            <path id="Tracé_10-9" data-name="Tracé 10" d="M38.494,46.082H17.052L12.689,59.661a1.092,1.092,0,0,1-1.114.835H.714q-.929,0-.65-1.021L18.63,6.228c.186-.557.371-1.1.557-1.814A19.831,19.831,0,0,0,19.558.656a.575.575,0,0,1,.65-.65H34.967q.648,0,.743.464l21.071,59.1q.278.929-.557.928H44.157a.858.858,0,0,1-.928-.65Zm-18.1-11.449H35.06q-.557-1.856-1.3-4.177T32.182,25.49L30.511,20.2q-.835-2.645-1.532-5.105t-1.253-4.5h-.093a74.861,74.861,0,0,1-1.949,7.426q-1.3,4.177-2.645,8.54T20.393,34.633Z" fill="#99f"/>
            <path id="Tracé_11-9" data-name="Tracé 11" d="M31.282,26.961H13a13.04,13.04,0,0,0,1.764,5.114,9.55,9.55,0,0,0,4.223,3.481A17.636,17.636,0,0,0,26.363,37a33.441,33.441,0,0,0,5.987-.657A22.068,22.068,0,0,0,37.5,35c.309-.246.464-.093.464.464v8.818a1.375,1.375,0,0,1-.139.7,1.331,1.331,0,0,1-.418.418,23.606,23.606,0,0,1-5.751,1.713,40.8,40.8,0,0,1-8.169.7,26.471,26.471,0,0,1-11.046-2.042A19.687,19.687,0,0,1,5.2,40.29a21.447,21.447,0,0,1-3.992-7.565A29.79,29.79,0,0,1,0,24.324a29.258,29.258,0,0,1,1.439-9.143,23.884,23.884,0,0,1,4.316-7.89,20.735,20.735,0,0,1,6.962-5.477A21.8,21.8,0,0,1,22.371.007,20.949,20.949,0,0,1,31.329,1.77a15.787,15.787,0,0,1,6.08,4.592,21.111,21.111,0,0,1,3.435,6.544,23.321,23.321,0,0,1,1.114,7.055q0,2.043-.139,3.713t-.232,2.413a.841.841,0,0,1-.836.743q-.557,0-1.9.139t-3.342.186C34.174,27.187,32.768,26.961,31.282,26.961ZM13,18.5h12.16q2.228,0,3.3-.046a3.243,3.243,0,0,0,1.346-.446v-.557a7.426,7.426,0,0,0-.371-2.135,7.583,7.583,0,0,0-7.519-5.291,8.064,8.064,0,0,0-7.658,4.363A13.427,13.427,0,0,0,13,18.5Z" transform="translate(59.659 13.836)" fill="#99f"/>
          </g>
        </g>
      </g>
      <g id="Layer_2-10" data-name="Layer 2" transform="matrix(0.951, 0.309, -0.309, 0.951, 1245.312, 62.063)">
        <g id="Surfaces-10" data-name="Surfaces" transform="translate(0 0)">
          <g id="Video_Audio_Surface-10" data-name="Video/Audio Surface">
            <g id="Outline_no_shadow-10" data-name="Outline no shadow">
              <rect id="Rectangle_41-10" data-name="Rectangle 41" width="246.926" height="240.903" rx="42.5" fill="#110c39"/>
            </g>
          </g>
        </g>
        <g id="Outlined_Mnemonics_Logos-10" data-name="Outlined Mnemonics &amp; Logos" transform="translate(30.518 61.878)">
          <g id="Ae-10" data-name="Ae" transform="translate(0 0)">
            <path id="Tracé_10-10" data-name="Tracé 10" d="M68.724,82.27H30.442l-7.789,24.241A1.949,1.949,0,0,1,20.664,108H1.275q-1.659,0-1.16-1.823L33.259,11.12c.331-.994.663-1.966.994-3.238a35.4,35.4,0,0,0,.663-6.711A1.026,1.026,0,0,1,36.076.01h26.35q1.157,0,1.326.829L101.37,106.345q.5,1.659-.994,1.657H78.832a1.532,1.532,0,0,1-1.657-1.16ZM36.408,61.83H62.592q-.994-3.313-2.32-7.458t-2.817-8.866L54.471,36.06q-1.491-4.723-2.735-9.115T49.5,18.908h-.166a133.648,133.648,0,0,1-3.48,13.257q-2.323,7.458-4.723,15.246T36.408,61.83Z" fill="#99f"/>
            <path id="Tracé_11-10" data-name="Tracé 11" d="M55.848,48.132H23.2a23.28,23.28,0,0,0,3.149,9.131,17.05,17.05,0,0,0,7.54,6.214A31.486,31.486,0,0,0,47.065,66.06a59.7,59.7,0,0,0,10.689-1.174,39.4,39.4,0,0,0,9.19-2.4c.551-.44.829-.166.829.829V79.063a2.454,2.454,0,0,1-.249,1.243,2.377,2.377,0,0,1-.746.746A42.145,42.145,0,0,1,56.511,84.11a72.838,72.838,0,0,1-14.583,1.243q-11.769,0-19.721-3.646A35.148,35.148,0,0,1,9.281,71.929,38.288,38.288,0,0,1,2.154,58.423,53.184,53.184,0,0,1,0,43.425,52.233,52.233,0,0,1,2.569,27.1a42.639,42.639,0,0,1,7.706-14.086A37.018,37.018,0,0,1,22.7,3.238C27.564.864,33.31.012,39.939.012A37.4,37.4,0,0,1,55.931,3.16a28.185,28.185,0,0,1,10.855,8.2,37.689,37.689,0,0,1,6.132,11.683,41.635,41.635,0,0,1,1.989,12.595q0,3.647-.249,6.629t-.414,4.309A1.5,1.5,0,0,1,72.751,47.9q-.994,0-3.4.249t-5.966.331C61.011,48.537,58.5,48.132,55.848,48.132ZM23.2,33.036H44.91q3.977,0,5.883-.083a5.789,5.789,0,0,0,2.4-.8v-.994a13.257,13.257,0,0,0-.663-3.811A13.538,13.538,0,0,0,39.11,17.9a14.4,14.4,0,0,0-13.672,7.789A23.969,23.969,0,0,0,23.2,33.036Z" transform="translate(106.509 24.702)" fill="#99f"/>
          </g>
        </g>
      </g>
      <g id="Layer_2-11" data-name="Layer 2" transform="translate(0 95.223) rotate(-14)">
        <g id="Surfaces-11" data-name="Surfaces" transform="translate(0 0)">
          <g id="Video_Audio_Surface-11" data-name="Video/Audio Surface" transform="translate(0 0)">
            <g id="Outline_no_shadow-11" data-name="Outline no shadow">
              <rect id="Rectangle_41-11" data-name="Rectangle 41" width="187.6" height="183.024" rx="42.5" fill="#110c39"/>
            </g>
          </g>
        </g>
        <g id="Outlined_Mnemonics_Logos-11" data-name="Outlined Mnemonics &amp; Logos" transform="translate(23.186 47.011)">
          <g id="Ae-11" data-name="Ae" transform="translate(0 0)">
            <path id="Tracé_10-11" data-name="Tracé 10" d="M52.212,62.5H23.128L17.211,80.921A1.481,1.481,0,0,1,15.7,82.054H.969q-1.26,0-.881-1.385L25.269,8.448c.252-.755.5-1.494.755-2.46a26.9,26.9,0,0,0,.5-5.1.779.779,0,0,1,.881-.881H47.428q.879,0,1.007.63l28.58,80.158q.377,1.26-.755,1.259H59.892a1.164,1.164,0,0,1-1.259-.881ZM27.661,46.975H47.554q-.755-2.517-1.763-5.666t-2.14-6.736L41.384,27.4q-1.133-3.588-2.078-6.925t-1.7-6.106h-.126a101.539,101.539,0,0,1-2.644,10.072Q33.072,30.1,31.249,36.021T27.661,46.975Z" transform="translate(0)" fill="#99f"/>
            <path id="Tracé_11-11" data-name="Tracé 11" d="M42.43,36.568h-24.8a17.687,17.687,0,0,0,2.392,6.937,12.953,12.953,0,0,0,5.728,4.721,23.921,23.921,0,0,0,10.01,1.962,45.357,45.357,0,0,0,8.121-.892,29.93,29.93,0,0,0,6.982-1.82c.419-.334.63-.126.63.63V60.067a1.864,1.864,0,0,1-.189.944,1.806,1.806,0,0,1-.567.566,32.019,32.019,0,0,1-7.8,2.324,55.338,55.338,0,0,1-11.08.944q-8.941,0-14.983-2.77a26.7,26.7,0,0,1-9.82-7.428A29.089,29.089,0,0,1,1.637,44.386,40.406,40.406,0,0,1,0,32.992a39.684,39.684,0,0,1,1.952-12.4,32.4,32.4,0,0,1,5.854-10.7A28.124,28.124,0,0,1,17.249,2.46C20.942.656,25.307.009,30.343.009A28.414,28.414,0,0,1,42.493,2.4,21.413,21.413,0,0,1,50.739,8.63,28.634,28.634,0,0,1,55.4,17.506a31.632,31.632,0,0,1,1.511,9.569q0,2.771-.189,5.036t-.315,3.274a1.141,1.141,0,0,1-1.133,1.007q-.756,0-2.581.189t-4.532.252C46.352,36.875,44.444,36.568,42.43,36.568ZM17.627,25.1H34.12q3.022,0,4.469-.063a4.4,4.4,0,0,0,1.826-.605v-.756a10.073,10.073,0,0,0-.5-2.9,10.286,10.286,0,0,0-10.2-7.177A10.937,10.937,0,0,0,19.326,19.52,18.21,18.21,0,0,0,17.627,25.1Z" transform="translate(80.919 18.767)" fill="#99f"/>
          </g>
        </g>
      </g>
      <path id="Tracé_71" data-name="Tracé 71" d="M848.418,1.48s442.192,381.07,244.113,896.526-707.925,293.271-777.485,593.371,192.391,596.777,545.563,862.209S1153.8,2747.54,1153.8,2747.54" transform="translate(0 -1.48)" fill="none" stroke="#99f" stroke-width="3" stroke-dasharray="10"/>
      <path id="Tracé_72" data-name="Tracé 72" d="M986.286,1.48S888.9,820.114,695.54,1060.887s-325.545,382.518-90.332,987.59,72.307,720.018,0,711.052" transform="translate(109.811 -1.48)" fill="none" stroke="#99f" stroke-width="3"/>
    </g>
  </g>
</svg>
