<svg xmlns="http://www.w3.org/2000/svg" width="868.487" height="2212.854" viewBox="0 0 868.487 2212.854">
  <g id="BACK" transform="translate(41.921 -608.589)">
    <path id="Tracé_69" data-name="Tracé 69" d="M8766.295,771s411.109,276.744,313.062,706.427-334.821,592.244-246.419,937.377,167.966,312.577,169.58,566.2" transform="translate(-8517 -161)" fill="none" stroke="#878bc5" stroke-width="3" stroke-dasharray="10"/>
    <path id="Tracé_70" data-name="Tracé 70" d="M342.367,610S888.2,807.318,562.3,1342.678,119.8,2182.937,385.839,2479.185,494.611,2820,494.611,2820" transform="translate(-85.988)" fill="none" stroke="#99f" stroke-width="3"/>
    <g id="Layer_2" data-name="Layer 2" transform="translate(555.381 765.224) rotate(-9)">
      <g id="Surfaces" transform="translate(0 -0.021)">
        <g id="Video_Audio_Surface" data-name="Video/Audio Surface">
          <g id="Outline_no_shadow" data-name="Outline no shadow">
            <rect id="Rectangle_41" data-name="Rectangle 41" width="237.82" height="232.02" rx="42.5" fill="#110c39"/>
          </g>
        </g>
      </g>
      <g id="Outlined_Mnemonics_Logos" data-name="Outlined Mnemonics &amp; Logos" transform="translate(29.393 59.574)">
        <g id="Ae">
          <path id="Tracé_10" data-name="Tracé 10" d="M95.838,139.309H58.968l-7.5,23.348a1.877,1.877,0,0,1-1.915,1.437H30.877q-1.6,0-1.117-1.756L61.682,70.783c.319-.957.638-1.894.957-3.118a34.1,34.1,0,0,0,.638-6.464.988.988,0,0,1,1.117-1.117H89.773q1.115,0,1.277.8L127.281,162.5q.478,1.6-.957,1.6H105.574a1.475,1.475,0,0,1-1.6-1.117ZM64.714,119.623H89.933q-.958-3.191-2.235-7.183T84.985,103.9l-2.873-9.1q-1.436-4.549-2.634-8.778t-2.155-7.741h-.16a128.722,128.722,0,0,1-3.352,12.769q-2.237,7.183-4.549,14.684T64.714,119.623Z" transform="translate(-29.649 -60.073)" fill="#99f"/>
          <path id="Tracé_11" data-name="Tracé 11" d="M186.912,130.429H155.469a22.422,22.422,0,0,0,3.033,8.794,16.421,16.421,0,0,0,7.262,5.985,30.325,30.325,0,0,0,12.689,2.487,57.5,57.5,0,0,0,10.295-1.13,37.945,37.945,0,0,0,8.851-2.307c.531-.424.8-.16.8.8v15.163a2.363,2.363,0,0,1-.24,1.2,2.29,2.29,0,0,1-.718.718,40.591,40.591,0,0,1-9.888,2.946,70.153,70.153,0,0,1-14.046,1.2q-11.335,0-18.994-3.511a33.851,33.851,0,0,1-12.449-9.417A36.876,36.876,0,0,1,135.2,140.34a51.223,51.223,0,0,1-2.075-14.445,50.307,50.307,0,0,1,2.474-15.721,41.068,41.068,0,0,1,7.422-13.567,35.653,35.653,0,0,1,11.971-9.417c4.681-2.287,10.215-3.107,16.6-3.107a36.02,36.02,0,0,1,15.4,3.032,27.145,27.145,0,0,1,10.454,7.9,36.3,36.3,0,0,1,5.906,11.253,40.1,40.1,0,0,1,1.915,12.13q0,3.512-.24,6.384t-.4,4.15a1.446,1.446,0,0,1-1.437,1.277q-.958,0-3.272.239t-5.746.319C191.885,130.819,189.466,130.429,186.912,130.429Zm-31.443-14.54h20.909q3.831,0,5.666-.08a5.575,5.575,0,0,0,2.315-.767v-.958a12.768,12.768,0,0,0-.638-3.671,13.039,13.039,0,0,0-12.928-9.1,13.865,13.865,0,0,0-13.168,7.5A23.085,23.085,0,0,0,155.469,115.889Z" transform="translate(-30.543 -60.281)" fill="#99f"/>
        </g>
      </g>
    </g>
    <g id="Layer_2-2" data-name="Layer 2" transform="matrix(0.974, -0.225, 0.225, 0.974, 110.36, 2129.685)">
      <g id="Surfaces-2" data-name="Surfaces" transform="translate(0 -0.021)">
        <g id="Video_Audio_Surface-2" data-name="Video/Audio Surface">
          <g id="Outline_no_shadow-2" data-name="Outline no shadow">
            <rect id="Rectangle_41-2" data-name="Rectangle 41" width="157.081" height="153.25" rx="42.5" fill="#110c39"/>
          </g>
        </g>
      </g>
      <g id="Outlined_Mnemonics_Logos-2" data-name="Outlined Mnemonics &amp; Logos" transform="translate(19.414 39.342)">
        <g id="Ae-2" data-name="Ae">
          <path id="Tracé_10-2" data-name="Tracé 10" d="M73.367,112.409H49.014L44.06,127.83a1.24,1.24,0,0,1-1.265.949H30.46q-1.055,0-.738-1.16L50.807,67.147c.211-.632.422-1.251.632-2.06a22.521,22.521,0,0,0,.422-4.269.653.653,0,0,1,.738-.738H69.361q.736,0,.843.527l23.931,67.118q.316,1.055-.632,1.054H79.8a.974.974,0,0,1-1.054-.738Zm-20.557-13H69.467q-.633-2.108-1.476-4.744T66.2,89.022l-1.9-6.009q-.949-3-1.74-5.8T61.138,72.1h-.105a85.023,85.023,0,0,1-2.214,8.434q-1.478,4.744-3,9.7T52.81,99.406Z" transform="translate(-29.649 -60.073)" fill="#99f"/>
          <path id="Tracé_11-2" data-name="Tracé 11" d="M168.651,114.691H147.883a14.81,14.81,0,0,0,2,5.808,10.846,10.846,0,0,0,4.8,3.953,20.03,20.03,0,0,0,8.381,1.643,37.983,37.983,0,0,0,6.8-.747,25.063,25.063,0,0,0,5.846-1.524c.351-.28.527-.105.527.527v10.015a1.561,1.561,0,0,1-.158.791,1.512,1.512,0,0,1-.475.474,26.811,26.811,0,0,1-6.531,1.946,46.336,46.336,0,0,1-9.277.791,30.063,30.063,0,0,1-12.545-2.319,22.359,22.359,0,0,1-8.223-6.22,24.357,24.357,0,0,1-4.533-8.592,33.832,33.832,0,0,1-1.37-9.541,33.228,33.228,0,0,1,1.634-10.384,27.125,27.125,0,0,1,4.9-8.961,23.549,23.549,0,0,1,7.907-6.22,24.757,24.757,0,0,1,10.964-2.052,23.792,23.792,0,0,1,10.173,2,17.93,17.93,0,0,1,6.905,5.215,23.977,23.977,0,0,1,3.9,7.432,26.486,26.486,0,0,1,1.265,8.012q0,2.32-.158,4.217t-.263,2.741a.955.955,0,0,1-.949.843q-.633,0-2.161.158t-3.8.211C171.936,114.948,170.338,114.691,168.651,114.691Zm-20.768-9.6h13.81q2.53,0,3.742-.053a3.682,3.682,0,0,0,1.529-.507V103.9a8.434,8.434,0,0,0-.422-2.425A8.612,8.612,0,0,0,158,95.462a9.158,9.158,0,0,0-8.7,4.955A15.248,15.248,0,0,0,147.883,105.087Z" transform="translate(-65.369 -68.358)" fill="#99f"/>
        </g>
      </g>
    </g>
    <g id="Layer_2-3" data-name="Layer 2" transform="translate(649.181 1969.072) rotate(12)">
      <g id="Surfaces-3" data-name="Surfaces" transform="translate(0 -0.021)">
        <g id="Video_Audio_Surface-3" data-name="Video/Audio Surface">
          <g id="Outline_no_shadow-3" data-name="Outline no shadow">
            <rect id="Rectangle_41-3" data-name="Rectangle 41" width="107.793" height="105.164" rx="42.5" fill="#110c39"/>
          </g>
        </g>
      </g>
      <g id="Outlined_Mnemonics_Logos-3" data-name="Outlined Mnemonics &amp; Logos" transform="translate(13.322 26.991)">
        <g id="Ae-3" data-name="Ae">
          <path id="Tracé_10-3" data-name="Tracé 10" d="M59.649,95.987H42.938l-3.4,10.582a.851.851,0,0,1-.868.651H30.205q-.724,0-.506-.8l14.469-41.5c.145-.434.289-.858.434-1.413a15.455,15.455,0,0,0,.289-2.93.448.448,0,0,1,.506-.506H56.9q.505,0,.579.362L73.9,106.5q.217.724-.434.723h-9.4a.669.669,0,0,1-.723-.506ZM45.542,87.065h11.43q-.434-1.446-1.013-3.255t-1.23-3.87l-1.3-4.124q-.651-2.062-1.194-3.979t-.977-3.509h-.072a58.345,58.345,0,0,1-1.519,5.787q-1.014,3.256-2.062,6.656T45.542,87.065Z" transform="translate(-29.649 -60.073)" fill="#99f"/>
          <path id="Tracé_11-3" data-name="Tracé 11" d="M157.5,105.084H143.252a10.163,10.163,0,0,0,1.375,3.986,7.443,7.443,0,0,0,3.291,2.713,13.745,13.745,0,0,0,5.751,1.127,26.065,26.065,0,0,0,4.666-.512,17.2,17.2,0,0,0,4.012-1.046c.241-.192.362-.072.362.362v6.873a1.071,1.071,0,0,1-.109.543,1.038,1.038,0,0,1-.326.326,18.4,18.4,0,0,1-4.482,1.335,31.8,31.8,0,0,1-6.366.543,20.63,20.63,0,0,1-8.609-1.592,15.343,15.343,0,0,1-5.643-4.268,16.714,16.714,0,0,1-3.111-5.9,23.216,23.216,0,0,1-.94-6.547,22.8,22.8,0,0,1,1.121-7.126,18.614,18.614,0,0,1,3.364-6.149,16.16,16.16,0,0,1,5.426-4.268,16.989,16.989,0,0,1,7.524-1.408,16.327,16.327,0,0,1,6.981,1.374,12.3,12.3,0,0,1,4.738,3.579,16.453,16.453,0,0,1,2.677,5.1,18.175,18.175,0,0,1,.868,5.5q0,1.592-.109,2.894t-.181,1.881a.655.655,0,0,1-.651.579q-.434,0-1.483.108t-2.6.145C159.757,105.26,158.661,105.084,157.5,105.084Zm-14.252-6.59h9.477q1.736,0,2.568-.036a2.527,2.527,0,0,0,1.049-.348v-.434a5.788,5.788,0,0,0-.289-1.664,5.91,5.91,0,0,0-5.86-4.124,6.284,6.284,0,0,0-5.968,3.4A10.464,10.464,0,0,0,143.252,98.493Z" transform="translate(-86.629 -73.288)" fill="#99f"/>
        </g>
      </g>
    </g>
    <g id="Layer_2-4" data-name="Layer 2" transform="translate(542.293 1493.4) rotate(-12)">
      <g id="Surfaces-4" data-name="Surfaces" transform="translate(0 -0.021)">
        <g id="Video_Audio_Surface-4" data-name="Video/Audio Surface">
          <g id="Outline_no_shadow-4" data-name="Outline no shadow">
            <rect id="Rectangle_41-4" data-name="Rectangle 41" width="232.235" height="226.571" rx="42.5" fill="#110c39"/>
          </g>
        </g>
      </g>
      <g id="Outlined_Mnemonics_Logos-4" data-name="Outlined Mnemonics &amp; Logos" transform="translate(28.702 58.175)">
        <g id="Ae-4" data-name="Ae">
          <path id="Tracé_10-4" data-name="Tracé 10" d="M94.284,137.449h-36l-7.325,22.8a1.833,1.833,0,0,1-1.87,1.4H30.848q-1.56,0-1.091-1.715l31.172-89.4c.312-.935.623-1.849.935-3.045a33.294,33.294,0,0,0,.623-6.312.965.965,0,0,1,1.091-1.091H88.361q1.088,0,1.247.779l35.38,99.229q.467,1.56-.935,1.559H103.791a1.44,1.44,0,0,1-1.558-1.091ZM63.891,118.225H88.517q-.935-3.116-2.182-7.014t-2.649-8.339L80.88,93.988q-1.4-4.442-2.572-8.572t-2.1-7.559h-.156a125.7,125.7,0,0,1-3.273,12.469q-2.185,7.014-4.442,14.339T63.891,118.225Z" transform="translate(-29.649 -60.073)" fill="#99f"/>
          <path id="Tracé_11-4" data-name="Tracé 11" d="M185.649,129.341h-30.7a21.9,21.9,0,0,0,2.961,8.587A16.036,16.036,0,0,0,165,143.773a29.614,29.614,0,0,0,12.391,2.429,56.156,56.156,0,0,0,10.053-1.1,37.051,37.051,0,0,0,8.643-2.253c.519-.414.779-.156.779.779v14.807a2.308,2.308,0,0,1-.234,1.169,2.236,2.236,0,0,1-.7.7,39.637,39.637,0,0,1-9.656,2.877,68.509,68.509,0,0,1-13.716,1.169q-11.069,0-18.548-3.429a33.056,33.056,0,0,1-12.157-9.2,36.011,36.011,0,0,1-6.7-12.7,50.019,50.019,0,0,1-2.026-14.105,49.125,49.125,0,0,1,2.416-15.352,40.1,40.1,0,0,1,7.247-13.248,34.816,34.816,0,0,1,11.69-9.2c4.571-2.233,9.975-3.034,16.209-3.034a35.175,35.175,0,0,1,15.041,2.961,26.508,26.508,0,0,1,10.209,7.71,35.446,35.446,0,0,1,5.767,10.988,39.157,39.157,0,0,1,1.87,11.845q0,3.43-.234,6.234t-.39,4.052a1.412,1.412,0,0,1-1.4,1.247q-.935,0-3.195.234t-5.611.312C190.5,129.721,188.143,129.341,185.649,129.341Zm-30.7-14.2h20.418q3.741,0,5.533-.078a5.444,5.444,0,0,0,2.261-.749v-.935a12.469,12.469,0,0,0-.623-3.585,12.733,12.733,0,0,0-12.625-8.884,13.539,13.539,0,0,0-12.859,7.325A22.545,22.545,0,0,0,154.945,115.142Z" transform="translate(-32.952 -60.839)" fill="#99f"/>
        </g>
      </g>
    </g>
    <g id="Layer_2-5" data-name="Layer 2" transform="matrix(0.998, -0.07, 0.07, 0.998, 41.683, 2643.367)">
      <g id="Surfaces-5" data-name="Surfaces" transform="translate(0 -0.021)">
        <g id="Video_Audio_Surface-5" data-name="Video/Audio Surface">
          <g id="Outline_no_shadow-5" data-name="Outline no shadow">
            <rect id="Rectangle_41-5" data-name="Rectangle 41" width="171.157" height="166.983" rx="42.5" fill="#110c39"/>
          </g>
        </g>
      </g>
      <g id="Outlined_Mnemonics_Logos-5" data-name="Outlined Mnemonics &amp; Logos" transform="translate(21.154 42.869)">
        <g id="Ae-5" data-name="Ae">
          <path id="Tracé_10-5" data-name="Tracé 10" d="M77.285,117.1H50.75l-5.4,16.8a1.351,1.351,0,0,1-1.379,1.034H30.533q-1.15,0-.8-1.264L52.7,67.781c.23-.689.459-1.363.689-2.244a24.538,24.538,0,0,0,.459-4.652.711.711,0,0,1,.8-.8H72.92q.8,0,.919.574l26.075,73.132q.344,1.15-.689,1.149H84.292a1.062,1.062,0,0,1-1.149-.8Zm-22.4-14.168H73.035q-.689-2.3-1.608-5.169t-1.953-6.146l-2.068-6.548q-1.034-3.274-1.9-6.318T63.96,73.18h-.115a92.643,92.643,0,0,1-2.412,9.189q-1.61,5.169-3.274,10.568T54.885,102.931Z" transform="translate(-29.649 -60.073)" fill="#99f"/>
          <path id="Tracé_11-5" data-name="Tracé 11" d="M171.835,117.435H149.206a16.138,16.138,0,0,0,2.183,6.329,11.818,11.818,0,0,0,5.226,4.307,21.825,21.825,0,0,0,9.132,1.79,41.385,41.385,0,0,0,7.409-.813,27.309,27.309,0,0,0,6.37-1.661c.382-.305.574-.115.574.574v10.913a1.7,1.7,0,0,1-.172.862,1.648,1.648,0,0,1-.517.517,29.213,29.213,0,0,1-7.117,2.12,50.489,50.489,0,0,1-10.109.862,32.757,32.757,0,0,1-13.67-2.527,24.363,24.363,0,0,1-8.96-6.777,26.54,26.54,0,0,1-4.94-9.362,36.864,36.864,0,0,1-1.493-10.4,36.206,36.206,0,0,1,1.781-11.315,29.556,29.556,0,0,1,5.341-9.764,25.659,25.659,0,0,1,8.615-6.777c3.369-1.646,7.351-2.236,11.946-2.236a25.924,25.924,0,0,1,11.085,2.182,19.536,19.536,0,0,1,7.524,5.682,26.125,26.125,0,0,1,4.25,8.1,28.86,28.86,0,0,1,1.379,8.73q0,2.528-.172,4.595t-.287,2.987a1.041,1.041,0,0,1-1.034.919q-.689,0-2.355.172t-4.135.23C175.414,117.715,173.673,117.435,171.835,117.435Zm-22.629-10.464h15.048q2.757,0,4.078-.057a4.012,4.012,0,0,0,1.666-.552v-.689a9.189,9.189,0,0,0-.459-2.642,9.384,9.384,0,0,0-9.3-6.548,9.979,9.979,0,0,0-9.477,5.4A16.615,16.615,0,0,0,149.206,106.971Z" transform="translate(-59.297 -66.95)" fill="#99f"/>
        </g>
      </g>
    </g>
    <g id="Layer_2-6" data-name="Layer 2" transform="matrix(0.995, 0.105, -0.105, 0.995, 15.37, 1283.097)">
      <g id="Surfaces-6" data-name="Surfaces" transform="translate(0 -0.021)">
        <g id="Video_Audio_Surface-6" data-name="Video/Audio Surface">
          <g id="Outline_no_shadow-6" data-name="Outline no shadow">
            <rect id="Rectangle_41-6" data-name="Rectangle 41" width="150.744" height="147.068" rx="42.5" fill="#110c39"/>
          </g>
        </g>
      </g>
      <g id="Outlined_Mnemonics_Logos-6" data-name="Outlined Mnemonics &amp; Logos" transform="translate(18.631 37.754)">
        <g id="Ae-6" data-name="Ae">
          <path id="Tracé_10-6" data-name="Tracé 10" d="M71.6,110.3H48.233l-4.755,14.8a1.19,1.19,0,0,1-1.214.911H30.427q-1.013,0-.708-1.113L49.953,66.862c.2-.607.4-1.2.607-1.977a21.613,21.613,0,0,0,.4-4.1.626.626,0,0,1,.708-.708H67.759q.706,0,.809.506L91.534,125q.3,1.013-.607,1.012H77.775a.935.935,0,0,1-1.012-.708ZM51.875,97.82H67.86q-.607-2.023-1.417-4.553t-1.72-5.413L62.9,82.088q-.91-2.883-1.669-5.564t-1.366-4.907h-.1a81.59,81.59,0,0,1-2.124,8.093q-1.418,4.553-2.883,9.308T51.875,97.82Z" transform="translate(-29.649 -60.073)" fill="#99f"/>
          <path id="Tracé_11-6" data-name="Tracé 11" d="M167.218,113.456h-19.93a14.212,14.212,0,0,0,1.922,5.574,10.409,10.409,0,0,0,4.6,3.794,19.222,19.222,0,0,0,8.043,1.576,36.448,36.448,0,0,0,6.525-.716,24.051,24.051,0,0,0,5.61-1.462c.337-.269.506-.1.506.506v9.611a1.5,1.5,0,0,1-.152.759,1.451,1.451,0,0,1-.455.455,25.728,25.728,0,0,1-6.268,1.867,44.466,44.466,0,0,1-8.9.759,28.851,28.851,0,0,1-12.039-2.226,21.457,21.457,0,0,1-7.891-5.969,23.374,23.374,0,0,1-4.351-8.245,32.467,32.467,0,0,1-1.315-9.156,31.888,31.888,0,0,1,1.568-9.965,26.031,26.031,0,0,1,4.7-8.6,22.6,22.6,0,0,1,7.588-5.969,23.758,23.758,0,0,1,10.521-1.97A22.832,22.832,0,0,1,167.269,86a17.207,17.207,0,0,1,6.627,5,23.009,23.009,0,0,1,3.743,7.132,25.418,25.418,0,0,1,1.214,7.689q0,2.226-.152,4.047t-.253,2.63a.917.917,0,0,1-.911.809q-.607,0-2.074.152t-3.642.2C170.37,113.7,168.837,113.456,167.218,113.456Zm-19.93-9.216h13.253q2.428,0,3.591-.051a3.534,3.534,0,0,0,1.467-.486V103.1a8.093,8.093,0,0,0-.4-2.327A8.265,8.265,0,0,0,157,95a8.788,8.788,0,0,0-8.347,4.755A14.633,14.633,0,0,0,147.288,104.24Z" transform="translate(-68.102 -68.992)" fill="#99f"/>
        </g>
      </g>
    </g>
    <g id="Layer_2-7" data-name="Layer 2" transform="translate(103.711 1852.723) rotate(-6)">
      <g id="Surfaces-7" data-name="Surfaces" transform="translate(0 -0.021)">
        <g id="Video_Audio_Surface-7" data-name="Video/Audio Surface">
          <g id="Outline_no_shadow-7" data-name="Outline no shadow">
            <rect id="Rectangle_41-7" data-name="Rectangle 41" width="89.567" height="87.382" rx="42.5" fill="#110c39"/>
          </g>
        </g>
      </g>
      <g id="Outlined_Mnemonics_Logos-7" data-name="Outlined Mnemonics &amp; Logos" transform="translate(11.07 22.423)">
        <g id="Ae-7" data-name="Ae">
          <path id="Tracé_10-7" data-name="Tracé 10" d="M54.577,89.915H40.691l-2.825,8.793a.707.707,0,0,1-.721.541H30.111q-.6,0-.421-.661L41.713,64.107c.12-.361.24-.713.361-1.174a12.841,12.841,0,0,0,.24-2.434.372.372,0,0,1,.421-.421h9.558q.42,0,.481.3l13.645,38.27q.18.6-.361.6H58.243a.556.556,0,0,1-.6-.421ZM42.855,82.5h9.5q-.361-1.2-.842-2.705T50.489,76.58l-1.082-3.426q-.541-1.713-.992-3.306T47.6,66.932h-.06a48.479,48.479,0,0,1-1.262,4.809q-.843,2.705-1.713,5.53T42.855,82.5Z" transform="translate(-29.649 -60.073)" fill="#99f"/>
          <path id="Tracé_11-7" data-name="Tracé 11" d="M153.381,101.531H141.539a8.445,8.445,0,0,0,1.142,3.312,6.185,6.185,0,0,0,2.735,2.254,11.421,11.421,0,0,0,4.779.937,21.656,21.656,0,0,0,3.877-.426,14.29,14.29,0,0,0,3.333-.869c.2-.16.3-.06.3.3v5.711a.89.89,0,0,1-.09.451.862.862,0,0,1-.271.27,15.287,15.287,0,0,1-3.724,1.109,26.42,26.42,0,0,1-5.29.451,17.142,17.142,0,0,1-7.153-1.322,12.749,12.749,0,0,1-4.689-3.547,13.888,13.888,0,0,1-2.585-4.9,19.291,19.291,0,0,1-.781-5.44,18.946,18.946,0,0,1,.932-5.921,15.467,15.467,0,0,1,2.8-5.109,13.428,13.428,0,0,1,4.508-3.547,14.116,14.116,0,0,1,6.251-1.17,13.566,13.566,0,0,1,5.8,1.142,10.223,10.223,0,0,1,3.937,2.974,13.671,13.671,0,0,1,2.224,4.238A15.1,15.1,0,0,1,160.294,97q0,1.323-.09,2.4t-.15,1.563a.545.545,0,0,1-.541.481q-.361,0-1.232.09t-2.164.12C155.254,101.677,154.343,101.531,153.381,101.531Zm-11.842-5.476h7.874q1.443,0,2.134-.03a2.1,2.1,0,0,0,.872-.289v-.361a4.809,4.809,0,0,0-.24-1.383,4.911,4.911,0,0,0-4.869-3.426,5.222,5.222,0,0,0-4.959,2.825A8.694,8.694,0,0,0,141.539,96.055Z" transform="translate(-94.49 -75.112)" fill="#99f"/>
        </g>
      </g>
    </g>
    <g id="Layer_2-8" data-name="Layer 2" transform="translate(-10.092 610.021) rotate(16)">
      <g id="Surfaces-8" data-name="Surfaces" transform="translate(0 -0.021)">
        <g id="Video_Audio_Surface-8" data-name="Video/Audio Surface">
          <g id="Outline_no_shadow-8" data-name="Outline no shadow">
            <rect id="Rectangle_41-8" data-name="Rectangle 41" width="118.381" height="115.494" rx="42.5" fill="#110c39"/>
          </g>
        </g>
      </g>
      <g id="Outlined_Mnemonics_Logos-8" data-name="Outlined Mnemonics &amp; Logos" transform="translate(14.631 29.644)">
        <g id="Ae-8" data-name="Ae">
          <path id="Tracé_10-8" data-name="Tracé 10" d="M62.6,99.515H44.243l-3.734,11.622a.934.934,0,0,1-.953.715h-9.3q-.8,0-.556-.874L45.594,65.4c.159-.477.318-.943.477-1.552a16.972,16.972,0,0,0,.318-3.218.492.492,0,0,1,.556-.556H59.577q.555,0,.636.4l18.035,50.582q.238.8-.477.795H67.442a.734.734,0,0,1-.794-.556ZM47.1,89.716H59.657q-.477-1.588-1.112-3.575T57.194,81.89l-1.43-4.529q-.715-2.264-1.311-4.37T53.38,69.138H53.3a64.073,64.073,0,0,1-1.668,6.356Q50.518,79.07,49.368,82.8T47.1,89.716Z" transform="translate(-29.649 -60.073)" fill="#99f"/>
          <path id="Tracé_11-8" data-name="Tracé 11" d="M159.9,107.147H144.247a11.161,11.161,0,0,0,1.51,4.377,8.174,8.174,0,0,0,3.615,2.979,15.1,15.1,0,0,0,6.316,1.238,28.624,28.624,0,0,0,5.124-.563,18.887,18.887,0,0,0,4.406-1.149c.264-.211.4-.079.4.4v7.548a1.177,1.177,0,0,1-.119.6,1.14,1.14,0,0,1-.358.357,20.2,20.2,0,0,1-4.922,1.466,34.921,34.921,0,0,1-6.992.6,22.657,22.657,0,0,1-9.455-1.748,16.85,16.85,0,0,1-6.2-4.687,18.355,18.355,0,0,1-3.417-6.475,25.5,25.5,0,0,1-1.033-7.19,25.042,25.042,0,0,1,1.232-7.826,20.443,20.443,0,0,1,3.694-6.753,17.747,17.747,0,0,1,5.959-4.687,18.658,18.658,0,0,1,8.263-1.547,17.93,17.93,0,0,1,7.667,1.509,13.512,13.512,0,0,1,5.2,3.93,18.069,18.069,0,0,1,2.94,5.6,19.96,19.96,0,0,1,.953,6.038q0,1.748-.119,3.178t-.2,2.066a.72.72,0,0,1-.715.636q-.477,0-1.629.119t-2.86.159C162.374,107.341,161.17,107.147,159.9,107.147ZM144.247,99.91h10.408q1.907,0,2.82-.04a2.775,2.775,0,0,0,1.152-.382v-.477a6.355,6.355,0,0,0-.318-1.827,6.491,6.491,0,0,0-6.435-4.529,6.9,6.9,0,0,0-6.555,3.734A11.492,11.492,0,0,0,144.247,99.91Z" transform="translate(-82.062 -72.229)" fill="#99f"/>
        </g>
      </g>
    </g>
  </g>
</svg>
