<svg xmlns="http://www.w3.org/2000/svg" width="1565.4" height="1768.071" viewBox="0 0 1565.4 1768.071">
  <g id="Background" transform="translate(99.148 -715.319)">
    <g id="Layer_2" data-name="Layer 2" transform="translate(24.647 1513.691) rotate(8)">
      <g id="Surfaces" transform="translate(0 -0.021)">
        <g id="Video_Audio_Surface" data-name="Video/Audio Surface">
          <g id="Outline_no_shadow" data-name="Outline no shadow">
            <rect id="Rectangle_41" data-name="Rectangle 41" width="181.546" height="177.118" rx="42.5" fill="#110c39"/>
          </g>
        </g>
      </g>
      <g id="Outlined_Mnemonics_Logos" data-name="Outlined Mnemonics &amp; Logos" transform="translate(22.438 45.472)">
        <g id="Ae">
          <path id="Tracé_10" data-name="Tracé 10" d="M80.176,120.56H52.03L46.3,138.383a1.433,1.433,0,0,1-1.462,1.1H30.586q-1.219,0-.853-1.34L54.1,68.249c.244-.731.487-1.446.731-2.38a26.03,26.03,0,0,0,.487-4.934.754.754,0,0,1,.853-.853H75.546q.851,0,.975.609l27.658,77.571q.365,1.219-.731,1.219H87.608a1.126,1.126,0,0,1-1.218-.853ZM56.417,105.532H75.668q-.731-2.436-1.706-5.483t-2.071-6.519L69.7,86.586q-1.1-3.472-2.011-6.7t-1.645-5.909H65.92a98.258,98.258,0,0,1-2.559,9.747q-1.708,5.483-3.472,11.209T56.417,105.532Z" transform="translate(-29.649 -60.073)" fill="#99f"/>
          <path id="Tracé_11" data-name="Tracé 11" d="M174.184,119.46h-24a17.116,17.116,0,0,0,2.315,6.713,12.535,12.535,0,0,0,5.544,4.569,23.149,23.149,0,0,0,9.687,1.9,43.9,43.9,0,0,0,7.859-.863,28.965,28.965,0,0,0,6.757-1.761c.405-.324.609-.122.609.609V142.2a1.8,1.8,0,0,1-.183.914,1.748,1.748,0,0,1-.548.548,30.985,30.985,0,0,1-7.549,2.249,53.554,53.554,0,0,1-10.722.914,34.746,34.746,0,0,1-14.5-2.681,25.841,25.841,0,0,1-9.5-7.189,28.15,28.15,0,0,1-5.239-9.93A39.1,39.1,0,0,1,133.124,116a38.4,38.4,0,0,1,1.889-12,31.35,31.35,0,0,1,5.666-10.357,27.217,27.217,0,0,1,9.138-7.189c3.573-1.746,7.8-2.372,12.671-2.372A27.5,27.5,0,0,1,174.245,86.4a20.722,20.722,0,0,1,7.981,6.027,27.709,27.709,0,0,1,4.508,8.59,30.611,30.611,0,0,1,1.462,9.26q0,2.681-.183,4.874t-.3,3.168a1.1,1.1,0,0,1-1.1.975q-.731,0-2.5.183t-4.386.244C177.98,119.757,176.134,119.46,174.184,119.46Zm-24-11.1h15.961q2.924,0,4.325-.061a4.256,4.256,0,0,0,1.767-.586v-.731a9.747,9.747,0,0,0-.487-2.8,9.954,9.954,0,0,0-9.869-6.945,10.584,10.584,0,0,0-10.052,5.726A17.623,17.623,0,0,0,150.182,108.361Z" transform="translate(-54.816 -65.91)" fill="#99f"/>
        </g>
      </g>
    </g>
    <g id="Layer_2-2" data-name="Layer 2" transform="translate(1056.355 2201.338) rotate(8)">
      <g id="Surfaces-2" data-name="Surfaces" transform="translate(0 -0.021)">
        <g id="Video_Audio_Surface-2" data-name="Video/Audio Surface">
          <g id="Outline_no_shadow-2" data-name="Outline no shadow">
            <rect id="Rectangle_41-2" data-name="Rectangle 41" width="235.487" height="229.743" rx="42.5" fill="#110c39"/>
          </g>
        </g>
      </g>
      <g id="Outlined_Mnemonics_Logos-2" data-name="Outlined Mnemonics &amp; Logos" transform="translate(29.104 58.99)">
        <g id="Ae-2" data-name="Ae">
          <path id="Tracé_10-2" data-name="Tracé 10" d="M95.189,138.532H58.68L51.253,161.65a1.859,1.859,0,0,1-1.9,1.422H30.865q-1.582,0-1.106-1.738L61.367,70.678c.316-.948.632-1.875.948-3.088a33.763,33.763,0,0,0,.632-6.4.978.978,0,0,1,1.106-1.106H89.183q1.1,0,1.264.79l35.876,100.619q.474,1.582-.948,1.581H104.829a1.461,1.461,0,0,1-1.58-1.106ZM64.37,119.039H89.341q-.948-3.16-2.213-7.112t-2.687-8.455L81.6,94.463q-1.422-4.5-2.608-8.692t-2.133-7.665H76.7a127.453,127.453,0,0,1-3.319,12.643q-2.215,7.112-4.5,14.54T64.37,119.039Z" transform="translate(-29.649 -60.073)" fill="#99f"/>
          <path id="Tracé_11-2" data-name="Tracé 11" d="M186.384,129.974H155.25a22.2,22.2,0,0,0,3,8.708,16.26,16.26,0,0,0,7.191,5.926,30.027,30.027,0,0,0,12.565,2.463,56.937,56.937,0,0,0,10.194-1.119,37.571,37.571,0,0,0,8.764-2.285c.526-.42.79-.158.79.79v15.014a2.34,2.34,0,0,1-.237,1.185,2.267,2.267,0,0,1-.711.711,40.191,40.191,0,0,1-9.791,2.917,69.466,69.466,0,0,1-13.908,1.185q-11.224,0-18.807-3.477a33.519,33.519,0,0,1-12.327-9.325,36.514,36.514,0,0,1-6.8-12.881,50.719,50.719,0,0,1-2.054-14.3,49.813,49.813,0,0,1,2.45-15.567,40.664,40.664,0,0,1,7.349-13.434,35.3,35.3,0,0,1,11.853-9.325c4.635-2.264,10.115-3.077,16.436-3.077a35.667,35.667,0,0,1,15.251,3A26.879,26.879,0,0,1,196.815,94.9a35.942,35.942,0,0,1,5.848,11.142,39.705,39.705,0,0,1,1.9,12.011q0,3.478-.237,6.322t-.395,4.109a1.432,1.432,0,0,1-1.423,1.264q-.948,0-3.24.237t-5.689.316C191.308,130.36,188.913,129.974,186.384,129.974Zm-31.134-14.4h20.7q3.793,0,5.61-.079a5.521,5.521,0,0,0,2.292-.76v-.948a12.643,12.643,0,0,0-.632-3.635,12.911,12.911,0,0,0-12.8-9.008,13.729,13.729,0,0,0-13.039,7.428A22.86,22.86,0,0,0,155.25,115.577Z" transform="translate(-31.549 -60.514)" fill="#99f"/>
        </g>
      </g>
    </g>
    <g id="Layer_2-3" data-name="Layer 2" transform="translate(320.127 2365.99) rotate(-16)">
      <g id="Surfaces-3" data-name="Surfaces" transform="translate(0 -0.021)">
        <g id="Video_Audio_Surface-3" data-name="Video/Audio Surface">
          <g id="Outline_no_shadow-3" data-name="Outline no shadow">
            <rect id="Rectangle_41-3" data-name="Rectangle 41" width="125.206" height="122.152" rx="42.5" fill="#110c39"/>
          </g>
        </g>
      </g>
      <g id="Outlined_Mnemonics_Logos-3" data-name="Outlined Mnemonics &amp; Logos" transform="translate(15.474 31.354)">
        <g id="Ae-3" data-name="Ae">
          <path id="Tracé_10-3" data-name="Tracé 10" d="M64.5,101.789H45.085l-3.949,12.292a.988.988,0,0,1-1.008.756H30.3q-.841,0-.588-.924l16.806-48.2c.168-.5.336-1,.5-1.642a17.952,17.952,0,0,0,.336-3.4.52.52,0,0,1,.588-.588H61.3q.587,0,.672.42L81.05,114q.252.841-.5.84H69.621a.777.777,0,0,1-.84-.588ZM48.11,91.425H61.387q-.5-1.68-1.177-3.781t-1.428-4.5l-1.513-4.79q-.756-2.395-1.387-4.622t-1.134-4.075h-.084A67.767,67.767,0,0,1,52.9,76.383q-1.178,3.781-2.395,7.731T48.11,91.425Z" transform="translate(-29.649 -60.073)" fill="#99f"/>
          <path id="Tracé_11-3" data-name="Tracé 11" d="M161.442,108.478H144.888a11.8,11.8,0,0,0,1.6,4.63,8.645,8.645,0,0,0,3.823,3.151,15.965,15.965,0,0,0,6.681,1.309,30.273,30.273,0,0,0,5.42-.6,19.976,19.976,0,0,0,4.66-1.215c.28-.223.42-.084.42.42v7.983a1.244,1.244,0,0,1-.126.63,1.205,1.205,0,0,1-.378.378,21.369,21.369,0,0,1-5.206,1.551,36.934,36.934,0,0,1-7.395.63,23.963,23.963,0,0,1-10-1.849,17.822,17.822,0,0,1-6.554-4.958,19.414,19.414,0,0,1-3.613-6.848,26.966,26.966,0,0,1-1.092-7.6,26.485,26.485,0,0,1,1.3-8.277,21.621,21.621,0,0,1,3.907-7.143,18.77,18.77,0,0,1,6.3-4.958,19.733,19.733,0,0,1,8.739-1.636,18.964,18.964,0,0,1,8.109,1.6,14.291,14.291,0,0,1,5.5,4.157,19.11,19.11,0,0,1,3.109,5.924,21.111,21.111,0,0,1,1.008,6.386q0,1.849-.126,3.361t-.21,2.185a.761.761,0,0,1-.756.672q-.5,0-1.723.126t-3.025.168C164.06,108.683,162.786,108.478,161.442,108.478Zm-16.554-7.655H155.9q2.017,0,2.983-.042a2.935,2.935,0,0,0,1.219-.4v-.5a6.723,6.723,0,0,0-.336-1.933,6.865,6.865,0,0,0-6.806-4.79,7.3,7.3,0,0,0-6.933,3.949A12.153,12.153,0,0,0,144.888,100.823Z" transform="translate(-79.118 -71.546)" fill="#99f"/>
        </g>
      </g>
    </g>
    <g id="Layer_2-4" data-name="Layer 2" transform="translate(1105.182 1819.537) rotate(-5)">
      <g id="Surfaces-4" data-name="Surfaces" transform="translate(0 -0.021)">
        <g id="Video_Audio_Surface-4" data-name="Video/Audio Surface">
          <g id="Outline_no_shadow-4" data-name="Outline no shadow">
            <rect id="Rectangle_41-4" data-name="Rectangle 41" width="138.312" height="134.938" rx="42.5" fill="#110c39"/>
          </g>
        </g>
      </g>
      <g id="Outlined_Mnemonics_Logos-4" data-name="Outlined Mnemonics &amp; Logos" transform="translate(17.094 34.638)">
        <g id="Ae-4" data-name="Ae">
          <path id="Tracé_10-4" data-name="Tracé 10" d="M68.143,106.156H46.7l-4.363,13.578a1.092,1.092,0,0,1-1.114.835H30.363q-.929,0-.65-1.021L48.279,66.3c.186-.557.371-1.1.557-1.814a19.831,19.831,0,0,0,.371-3.759.575.575,0,0,1,.65-.65H64.616q.648,0,.743.464l21.071,59.1q.278.929-.557.928H73.805a.858.858,0,0,1-.928-.65Zm-18.1-11.449H64.709q-.557-1.856-1.3-4.177t-1.578-4.966L60.16,80.272q-.835-2.645-1.532-5.105t-1.253-4.5h-.093a74.86,74.86,0,0,1-1.949,7.426q-1.3,4.177-2.645,8.54T50.042,94.706Z" transform="translate(-29.649 -60.073)" fill="#99f"/>
          <path id="Tracé_11-4" data-name="Tracé 11" d="M164.406,111.032H146.12a13.04,13.04,0,0,0,1.764,5.114,9.55,9.55,0,0,0,4.223,3.481,17.636,17.636,0,0,0,7.38,1.446,33.441,33.441,0,0,0,5.987-.657,22.068,22.068,0,0,0,5.148-1.342c.309-.246.464-.093.464.464v8.818a1.375,1.375,0,0,1-.139.7,1.331,1.331,0,0,1-.418.418,23.606,23.606,0,0,1-5.751,1.713,40.8,40.8,0,0,1-8.169.7,26.471,26.471,0,0,1-11.046-2.042,19.687,19.687,0,0,1-7.24-5.477,21.447,21.447,0,0,1-3.992-7.565,29.79,29.79,0,0,1-1.207-8.4,29.258,29.258,0,0,1,1.439-9.143,23.884,23.884,0,0,1,4.316-7.89,20.735,20.735,0,0,1,6.962-5.477,21.8,21.8,0,0,1,9.654-1.807,20.949,20.949,0,0,1,8.958,1.764,15.787,15.787,0,0,1,6.08,4.592,21.111,21.111,0,0,1,3.435,6.544,23.321,23.321,0,0,1,1.114,7.055q0,2.043-.139,3.713t-.232,2.413a.841.841,0,0,1-.836.743q-.557,0-1.9.139t-3.342.186C167.3,111.259,165.891,111.032,164.406,111.032Zm-18.287-8.456h12.16q2.228,0,3.3-.046a3.243,3.243,0,0,0,1.346-.446v-.557a7.426,7.426,0,0,0-.371-2.135,7.583,7.583,0,0,0-7.519-5.291,8.064,8.064,0,0,0-7.658,4.363A13.427,13.427,0,0,0,146.12,102.576Z" transform="translate(-73.465 -70.235)" fill="#99f"/>
        </g>
      </g>
    </g>
    <g id="Layer_2-5" data-name="Layer 2" transform="matrix(0.951, 0.309, -0.309, 0.951, 1231.405, 727.563)">
      <g id="Surfaces-5" data-name="Surfaces" transform="translate(0 -0.021)">
        <g id="Video_Audio_Surface-5" data-name="Video/Audio Surface">
          <g id="Outline_no_shadow-5" data-name="Outline no shadow">
            <rect id="Rectangle_41-5" data-name="Rectangle 41" width="246.926" height="240.903" rx="42.5" fill="#110c39"/>
          </g>
        </g>
      </g>
      <g id="Outlined_Mnemonics_Logos-5" data-name="Outlined Mnemonics &amp; Logos" transform="translate(30.518 61.856)">
        <g id="Ae-5" data-name="Ae">
          <path id="Tracé_10-5" data-name="Tracé 10" d="M98.372,142.343H60.091L52.3,166.585a1.949,1.949,0,0,1-1.989,1.492H30.924q-1.659,0-1.16-1.823l33.144-95.06c.331-.994.663-1.966.994-3.238a35.4,35.4,0,0,0,.663-6.711,1.026,1.026,0,0,1,1.16-1.16h26.35q1.157,0,1.326.829l37.618,105.506q.5,1.659-.994,1.657H108.481a1.532,1.532,0,0,1-1.657-1.16ZM66.057,121.9H92.241q-.994-3.313-2.32-7.458T87.1,105.58L84.12,96.134q-1.491-4.723-2.735-9.115t-2.237-8.037h-.166A133.648,133.648,0,0,1,75.5,92.239Q73.18,99.7,70.78,107.486T66.057,121.9Z" transform="translate(-29.649 -60.073)" fill="#99f"/>
          <path id="Tracé_11-5" data-name="Tracé 11" d="M188.971,132.2H156.325a23.28,23.28,0,0,0,3.149,9.131,17.05,17.05,0,0,0,7.54,6.214,31.486,31.486,0,0,0,13.175,2.582,59.7,59.7,0,0,0,10.689-1.174,39.4,39.4,0,0,0,9.19-2.4c.551-.44.829-.166.829.829v15.743a2.454,2.454,0,0,1-.249,1.243,2.377,2.377,0,0,1-.746.746,42.145,42.145,0,0,1-10.267,3.059,72.838,72.838,0,0,1-14.583,1.243q-11.769,0-19.721-3.646A35.148,35.148,0,0,1,142.4,156a38.288,38.288,0,0,1-7.126-13.506,53.184,53.184,0,0,1-2.154-15,52.233,52.233,0,0,1,2.569-16.323A42.639,42.639,0,0,1,143.4,97.088a37.018,37.018,0,0,1,12.429-9.777c4.86-2.375,10.606-3.226,17.235-3.226a37.4,37.4,0,0,1,15.992,3.149,28.185,28.185,0,0,1,10.855,8.2,37.689,37.689,0,0,1,6.132,11.683,41.635,41.635,0,0,1,1.989,12.595q0,3.647-.249,6.629t-.414,4.309a1.5,1.5,0,0,1-1.492,1.326q-.994,0-3.4.249t-5.966.331C194.135,132.608,191.623,132.2,188.971,132.2Zm-32.647-15.1h21.709q3.977,0,5.883-.083a5.789,5.789,0,0,0,2.4-.8v-.994a13.257,13.257,0,0,0-.663-3.811,13.538,13.538,0,0,0-13.423-9.446,14.4,14.4,0,0,0-13.672,7.789A23.969,23.969,0,0,0,156.325,117.108Z" transform="translate(-26.615 -59.37)" fill="#99f"/>
        </g>
      </g>
    </g>
    <g id="Layer_2-6" data-name="Layer 2" transform="translate(591.311 1418.168) rotate(-9)">
      <g id="Surfaces-6" data-name="Surfaces" transform="translate(0 -0.021)">
        <g id="Video_Audio_Surface-6" data-name="Video/Audio Surface">
          <g id="Outline_no_shadow-6" data-name="Outline no shadow">
            <rect id="Rectangle_41-6" data-name="Rectangle 41" width="99.131" height="96.713" rx="42.5" fill="#110c39"/>
          </g>
        </g>
      </g>
      <g id="Outlined_Mnemonics_Logos-6" data-name="Outlined Mnemonics &amp; Logos" transform="translate(12.252 24.82)">
        <g id="Ae-6" data-name="Ae">
          <path id="Tracé_10-6" data-name="Tracé 10" d="M57.239,93.1H41.87l-3.127,9.732a.782.782,0,0,1-.8.6H30.161q-.666,0-.466-.732L43,64.537c.133-.4.266-.789.4-1.3a14.212,14.212,0,0,0,.266-2.694.412.412,0,0,1,.466-.466H54.71q.465,0,.532.333l15.1,42.357q.2.666-.4.665H61.3a.615.615,0,0,1-.665-.466ZM44.265,84.9H54.777q-.4-1.33-.932-2.994t-1.131-3.559l-1.2-3.792q-.6-1.9-1.1-3.659t-.9-3.227h-.067a53.658,53.658,0,0,1-1.4,5.322q-.933,2.994-1.9,6.121T44.265,84.9Z" transform="translate(-29.649 -60.073)" fill="#99f"/>
          <path id="Tracé_11-6" data-name="Tracé 11" d="M155.544,103.4H142.438a9.346,9.346,0,0,0,1.264,3.666,6.845,6.845,0,0,0,3.027,2.495,12.64,12.64,0,0,0,5.289,1.037,23.967,23.967,0,0,0,4.291-.471,15.816,15.816,0,0,0,3.689-.962c.221-.177.333-.066.333.333v6.32a.985.985,0,0,1-.1.5.954.954,0,0,1-.3.3,16.919,16.919,0,0,1-4.122,1.228,29.242,29.242,0,0,1-5.855.5,18.972,18.972,0,0,1-7.917-1.464,14.11,14.11,0,0,1-5.189-3.925,15.371,15.371,0,0,1-2.861-5.422,21.352,21.352,0,0,1-.865-6.021,20.97,20.97,0,0,1,1.031-6.553,17.118,17.118,0,0,1,3.094-5.655,14.862,14.862,0,0,1,4.99-3.925,15.623,15.623,0,0,1,6.919-1.3,15.015,15.015,0,0,1,6.42,1.264,11.315,11.315,0,0,1,4.358,3.291,15.131,15.131,0,0,1,2.462,4.69,16.715,16.715,0,0,1,.8,5.056q0,1.464-.1,2.661t-.166,1.73a.6.6,0,0,1-.6.532q-.4,0-1.364.1t-2.4.133C157.617,103.557,156.609,103.4,155.544,103.4Zm-13.106-6.061h8.715q1.6,0,2.362-.033a2.324,2.324,0,0,0,.965-.32v-.4a5.322,5.322,0,0,0-.266-1.53,5.435,5.435,0,0,0-5.389-3.792,5.779,5.779,0,0,0-5.489,3.127A9.622,9.622,0,0,0,142.438,97.334Z" transform="translate(-90.365 -74.155)" fill="#99f"/>
        </g>
      </g>
    </g>
    <g id="Layer_2-7" data-name="Layer 2" transform="translate(664.214 970.646) rotate(-20)">
      <g id="Surfaces-7" data-name="Surfaces" transform="translate(0 -0.021)">
        <g id="Video_Audio_Surface-7" data-name="Video/Audio Surface">
          <g id="Outline_no_shadow-7" data-name="Outline no shadow">
            <rect id="Rectangle_41-7" data-name="Rectangle 41" width="152.027" height="148.319" rx="42.5" fill="#110c39"/>
          </g>
        </g>
      </g>
      <g id="Outlined_Mnemonics_Logos-7" data-name="Outlined Mnemonics &amp; Logos" transform="translate(18.789 38.075)">
        <g id="Ae-7" data-name="Ae">
          <path id="Tracé_10-7" data-name="Tracé 10" d="M71.961,110.725H48.391L43.6,125.65a1.2,1.2,0,0,1-1.224.918H30.434q-1.021,0-.714-1.122L50.126,66.919c.2-.612.408-1.21.612-1.993a21.8,21.8,0,0,0,.408-4.132.632.632,0,0,1,.714-.714H68.083q.712,0,.816.51L92.06,125.548q.306,1.021-.612,1.02H78.184a.943.943,0,0,1-1.02-.714Zm-19.9-12.584H68.185q-.612-2.04-1.429-4.591t-1.734-5.459l-1.837-5.816q-.918-2.908-1.684-5.612t-1.377-4.948h-.1a82.285,82.285,0,0,1-2.143,8.162q-1.43,4.591-2.908,9.387T52.065,98.141Z" transform="translate(-29.649 -60.073)" fill="#99f"/>
          <path id="Tracé_11-7" data-name="Tracé 11" d="M167.508,113.706h-20.1a14.333,14.333,0,0,0,1.939,5.622,10.5,10.5,0,0,0,4.642,3.826,19.385,19.385,0,0,0,8.112,1.59,36.758,36.758,0,0,0,6.581-.723,24.256,24.256,0,0,0,5.658-1.475c.339-.271.51-.1.51.51v9.693a1.511,1.511,0,0,1-.153.765,1.464,1.464,0,0,1-.459.459,25.947,25.947,0,0,1-6.321,1.883,44.844,44.844,0,0,1-8.979.765,29.1,29.1,0,0,1-12.142-2.245,21.64,21.64,0,0,1-7.958-6.02,23.573,23.573,0,0,1-4.388-8.316,32.744,32.744,0,0,1-1.326-9.234,32.159,32.159,0,0,1,1.582-10.05,26.253,26.253,0,0,1,4.744-8.673,22.791,22.791,0,0,1,7.652-6.02,23.96,23.96,0,0,1,10.611-1.986,23.026,23.026,0,0,1,9.846,1.938,17.353,17.353,0,0,1,6.683,5.047,23.2,23.2,0,0,1,3.775,7.193,25.634,25.634,0,0,1,1.224,7.754q0,2.245-.153,4.081t-.255,2.653a.924.924,0,0,1-.918.816q-.612,0-2.092.153t-3.673.2C170.687,113.955,169.141,113.706,167.508,113.706Zm-20.1-9.295h13.366q2.449,0,3.622-.051a3.564,3.564,0,0,0,1.48-.49v-.612a8.162,8.162,0,0,0-.408-2.347A8.335,8.335,0,0,0,157.2,95.1a8.863,8.863,0,0,0-8.418,4.8A14.757,14.757,0,0,0,147.408,104.411Z" transform="translate(-67.549 -68.863)" fill="#99f"/>
        </g>
      </g>
    </g>
    <g id="Layer_2-8" data-name="Layer 2" transform="translate(-99.143 760.724) rotate(-14)">
      <g id="Surfaces-8" data-name="Surfaces" transform="translate(0 -0.021)">
        <g id="Video_Audio_Surface-8" data-name="Video/Audio Surface">
          <g id="Outline_no_shadow-8" data-name="Outline no shadow">
            <rect id="Rectangle_41-8" data-name="Rectangle 41" width="187.6" height="183.024" rx="42.5" fill="#110c39"/>
          </g>
        </g>
      </g>
      <g id="Outlined_Mnemonics_Logos-8" data-name="Outlined Mnemonics &amp; Logos" transform="translate(23.186 46.99)">
        <g id="Ae-8" data-name="Ae">
          <path id="Tracé_10-8" data-name="Tracé 10" d="M81.861,122.577H52.777l-5.917,18.417a1.481,1.481,0,0,1-1.511,1.133H30.618q-1.26,0-.881-1.385L54.917,68.521c.252-.755.5-1.494.755-2.46a26.9,26.9,0,0,0,.5-5.1.779.779,0,0,1,.881-.881H77.076q.879,0,1.007.63l28.58,80.158q.377,1.26-.755,1.259H89.541a1.164,1.164,0,0,1-1.259-.881ZM57.31,107.048H77.2q-.755-2.517-1.763-5.666T73.3,94.646L71.033,87.47q-1.133-3.588-2.078-6.925t-1.7-6.106H67.13a101.539,101.539,0,0,1-2.644,10.072Q62.721,90.177,60.9,96.094T57.31,107.048Z" transform="translate(-29.649 -60.073)" fill="#99f"/>
          <path id="Tracé_11-8" data-name="Tracé 11" d="M175.554,120.64h-24.8a17.687,17.687,0,0,0,2.392,6.937,12.953,12.953,0,0,0,5.728,4.721,23.921,23.921,0,0,0,10.01,1.962,45.357,45.357,0,0,0,8.121-.892,29.93,29.93,0,0,0,6.982-1.82c.419-.334.63-.126.63.63v11.961a1.864,1.864,0,0,1-.189.944,1.806,1.806,0,0,1-.567.566,32.019,32.019,0,0,1-7.8,2.324,55.338,55.338,0,0,1-11.08.944q-8.941,0-14.983-2.77a26.7,26.7,0,0,1-9.82-7.428,29.089,29.089,0,0,1-5.414-10.261,40.406,40.406,0,0,1-1.637-11.394,39.684,39.684,0,0,1,1.952-12.4,32.4,32.4,0,0,1,5.854-10.7,28.124,28.124,0,0,1,9.443-7.428c3.692-1.8,8.058-2.451,13.094-2.451a28.414,28.414,0,0,1,12.15,2.392,21.413,21.413,0,0,1,8.247,6.228,28.634,28.634,0,0,1,4.658,8.876,31.632,31.632,0,0,1,1.511,9.569q0,2.771-.189,5.036t-.315,3.274a1.141,1.141,0,0,1-1.133,1.007q-.756,0-2.581.189t-4.532.252C179.476,120.947,177.568,120.64,175.554,120.64Zm-24.8-11.47h16.493q3.022,0,4.469-.063a4.4,4.4,0,0,0,1.826-.605v-.756a10.073,10.073,0,0,0-.5-2.9,10.286,10.286,0,0,0-10.2-7.177,10.937,10.937,0,0,0-10.387,5.917A18.21,18.21,0,0,0,150.751,109.17Z" transform="translate(-52.205 -65.305)" fill="#99f"/>
        </g>
      </g>
    </g>
    <g id="Layer_2-9" data-name="Layer 2" transform="translate(-34.173 2040.163) rotate(-10)">
      <g id="Surfaces-9" data-name="Surfaces" transform="translate(0 -0.021)">
        <g id="Video_Audio_Surface-9" data-name="Video/Audio Surface">
          <g id="Outline_no_shadow-9" data-name="Outline no shadow">
            <rect id="Rectangle_41-9" data-name="Rectangle 41" width="165.147" height="161.119" rx="42.5" fill="#110c39"/>
          </g>
        </g>
      </g>
      <g id="Outlined_Mnemonics_Logos-9" data-name="Outlined Mnemonics &amp; Logos" transform="translate(20.411 41.363)">
        <g id="Ae-9" data-name="Ae">
          <path id="Tracé_10-9" data-name="Tracé 10" d="M75.612,115.1h-25.6L44.8,131.309a1.3,1.3,0,0,1-1.33,1H30.5q-1.109,0-.776-1.219L51.893,67.51c.222-.665.443-1.315.665-2.165A23.679,23.679,0,0,0,53,60.856a.686.686,0,0,1,.776-.776H71.4q.774,0,.887.554L97.446,131.2q.332,1.109-.665,1.108H82.373a1.024,1.024,0,0,1-1.108-.776ZM54,101.426H71.511q-.665-2.216-1.552-4.988t-1.884-5.93l-2-6.318q-1-3.159-1.829-6.1t-1.5-5.375h-.111a89.384,89.384,0,0,1-2.327,8.867q-1.554,4.988-3.159,10.2T54,101.426Z" transform="translate(-29.649 -60.073)" fill="#99f"/>
          <path id="Tracé_11-9" data-name="Tracé 11" d="M170.475,116.263H148.641a15.57,15.57,0,0,0,2.106,6.107,11.4,11.4,0,0,0,5.043,4.156,21.058,21.058,0,0,0,8.812,1.727,39.93,39.93,0,0,0,7.149-.785,26.348,26.348,0,0,0,6.146-1.6c.369-.294.554-.111.554.554V136.95a1.641,1.641,0,0,1-.166.831,1.59,1.59,0,0,1-.5.5,28.187,28.187,0,0,1-6.867,2.046,48.714,48.714,0,0,1-9.754.831,31.607,31.607,0,0,1-13.189-2.438,23.507,23.507,0,0,1-8.645-6.539,25.607,25.607,0,0,1-4.766-9.033,35.569,35.569,0,0,1-1.441-10.031,34.935,34.935,0,0,1,1.718-10.917A28.518,28.518,0,0,1,140,92.777a24.758,24.758,0,0,1,8.313-6.539c3.25-1.588,7.093-2.158,11.527-2.158a25.014,25.014,0,0,1,10.7,2.106,18.851,18.851,0,0,1,7.26,5.483,25.209,25.209,0,0,1,4.1,7.814,27.848,27.848,0,0,1,1.33,8.424q0,2.439-.166,4.433t-.277,2.882a1,1,0,0,1-1,.887q-.665,0-2.272.166t-3.99.222C173.929,116.534,172.249,116.263,170.475,116.263Zm-21.834-10.1H163.16q2.66,0,3.935-.055a3.872,3.872,0,0,0,1.607-.533v-.665a8.868,8.868,0,0,0-.443-2.549,9.055,9.055,0,0,0-8.978-6.318,9.628,9.628,0,0,0-9.144,5.209A16.031,16.031,0,0,0,148.641,106.166Z" transform="translate(-61.89 -67.551)" fill="#99f"/>
        </g>
      </g>
    </g>
    <g id="Layer_2-10" data-name="Layer 2" transform="translate(102.218 1111.778) rotate(-8)">
      <g id="Surfaces-10" data-name="Surfaces" transform="translate(0 -0.021)">
        <g id="Video_Audio_Surface-10" data-name="Video/Audio Surface">
          <g id="Outline_no_shadow-10" data-name="Outline no shadow">
            <rect id="Rectangle_41-10" data-name="Rectangle 41" width="221.153" height="215.759" rx="42.5" fill="#110c39"/>
          </g>
        </g>
      </g>
      <g id="Outlined_Mnemonics_Logos-10" data-name="Outlined Mnemonics &amp; Logos" transform="translate(27.333 55.398)">
        <g id="Ae-10" data-name="Ae">
          <path id="Tracé_10-10" data-name="Tracé 10" d="M91.2,133.756H56.913l-6.976,21.711a1.746,1.746,0,0,1-1.781,1.336H30.791q-1.485,0-1.039-1.633L59.437,70.032c.3-.89.594-1.761.89-2.9a31.709,31.709,0,0,0,.594-6.011.919.919,0,0,1,1.039-1.039h23.6q1.036,0,1.187.742l33.692,94.494q.445,1.485-.89,1.484h-19.3a1.372,1.372,0,0,1-1.484-1.039ZM62.257,115.45H85.708q-.891-2.967-2.078-6.679t-2.523-7.941l-2.672-8.46q-1.336-4.23-2.449-8.163t-2-7.2h-.149a119.7,119.7,0,0,1-3.117,11.874q-2.08,6.679-4.23,13.655T62.257,115.45Z" transform="translate(-29.649 -60.073)" fill="#99f"/>
          <path id="Tracé_11-10" data-name="Tracé 11" d="M183.142,127.18H153.9a20.851,20.851,0,0,0,2.82,8.178,15.27,15.27,0,0,0,6.753,5.566,28.2,28.2,0,0,0,11.8,2.313,53.471,53.471,0,0,0,9.573-1.051,35.283,35.283,0,0,0,8.231-2.146c.494-.394.742-.148.742.742v14.1A2.2,2.2,0,0,1,193.6,156a2.13,2.13,0,0,1-.668.668,37.746,37.746,0,0,1-9.2,2.739,65.236,65.236,0,0,1-13.061,1.113q-10.541,0-17.662-3.265a31.479,31.479,0,0,1-11.577-8.757,34.291,34.291,0,0,1-6.383-12.1,47.633,47.633,0,0,1-1.929-13.432,46.783,46.783,0,0,1,2.3-14.62,38.189,38.189,0,0,1,6.9-12.616,33.155,33.155,0,0,1,11.132-8.757c4.353-2.127,9.5-2.89,15.436-2.89a33.5,33.5,0,0,1,14.323,2.82,25.243,25.243,0,0,1,9.722,7.342,33.758,33.758,0,0,1,5.492,10.464,37.291,37.291,0,0,1,1.781,11.28q0,3.266-.223,5.937t-.371,3.859a1.345,1.345,0,0,1-1.336,1.187q-.891,0-3.042.223t-5.343.3C187.767,127.543,185.517,127.18,183.142,127.18ZM153.9,113.66h19.443q3.562,0,5.269-.074a5.185,5.185,0,0,0,2.153-.713v-.891a11.875,11.875,0,0,0-.594-3.414,12.125,12.125,0,0,0-12.022-8.46,12.893,12.893,0,0,0-12.245,6.976A21.468,21.468,0,0,0,153.9,113.66Z" transform="translate(-37.732 -61.948)" fill="#99f"/>
        </g>
      </g>
    </g>
    <g id="Layer_2-11" data-name="Layer 2" transform="matrix(0.966, 0.259, -0.259, 0.966, 1126.47, 1251.768)">
      <g id="Surfaces-11" data-name="Surfaces" transform="translate(0 -0.021)">
        <g id="Video_Audio_Surface-11" data-name="Video/Audio Surface">
          <g id="Outline_no_shadow-11" data-name="Outline no shadow">
            <rect id="Rectangle_41-11" data-name="Rectangle 41" width="149.919" height="146.262" rx="42.5" fill="#110c39"/>
          </g>
        </g>
      </g>
      <g id="Outlined_Mnemonics_Logos-11" data-name="Outlined Mnemonics &amp; Logos" transform="translate(18.529 37.547)">
        <g id="Ae-11" data-name="Ae">
          <path id="Tracé_10-11" data-name="Tracé 10" d="M71.374,110.023H48.131L43.4,124.741a1.183,1.183,0,0,1-1.207.906H30.423q-1.007,0-.7-1.107L49.842,66.825c.2-.6.4-1.194.6-1.966a21.5,21.5,0,0,0,.4-4.075.623.623,0,0,1,.7-.7h16q.7,0,.8.5l22.84,64.057q.3,1.007-.6,1.006H77.511a.93.93,0,0,1-1.006-.7Zm-19.62-12.41h15.9q-.6-2.011-1.409-4.528T64.532,87.7l-1.811-5.735q-.905-2.867-1.66-5.534T59.7,71.554h-.1A81.143,81.143,0,0,1,57.489,79.6q-1.41,4.528-2.867,9.257T51.754,97.613Z" transform="translate(-29.649 -60.073)" fill="#99f"/>
          <path id="Tracé_11-11" data-name="Tracé 11" d="M167.031,113.295H147.21a14.135,14.135,0,0,0,1.912,5.544,10.352,10.352,0,0,0,4.578,3.773,19.116,19.116,0,0,0,8,1.568,36.247,36.247,0,0,0,6.49-.713,23.918,23.918,0,0,0,5.58-1.454c.335-.267.5-.1.5.5v9.558a1.49,1.49,0,0,1-.151.755,1.444,1.444,0,0,1-.453.453,25.587,25.587,0,0,1-6.234,1.857,44.222,44.222,0,0,1-8.854.755,28.693,28.693,0,0,1-11.973-2.214,21.34,21.34,0,0,1-7.848-5.936,23.246,23.246,0,0,1-4.327-8.2,32.29,32.29,0,0,1-1.308-9.106,31.714,31.714,0,0,1,1.56-9.911,25.888,25.888,0,0,1,4.679-8.552,22.475,22.475,0,0,1,7.546-5.936,23.628,23.628,0,0,1,10.464-1.959,22.707,22.707,0,0,1,9.709,1.912,17.113,17.113,0,0,1,6.59,4.977,22.884,22.884,0,0,1,3.723,7.093,25.28,25.28,0,0,1,1.207,7.647q0,2.214-.151,4.025t-.251,2.616a.912.912,0,0,1-.906.8q-.6,0-2.062.151t-3.622.2C170.166,113.54,168.641,113.295,167.031,113.295Zm-19.821-9.166h13.181q2.415,0,3.572-.05a3.515,3.515,0,0,0,1.459-.484v-.6a8.05,8.05,0,0,0-.4-2.314,8.22,8.22,0,0,0-8.15-5.735,8.74,8.74,0,0,0-8.3,4.729A14.553,14.553,0,0,0,147.21,104.129Z" transform="translate(-68.458 -69.074)" fill="#99f"/>
        </g>
      </g>
    </g>
    <g id="Layer_2-12" data-name="Layer 2" transform="matrix(0.996, 0.087, -0.087, 0.996, 573.421, 1880.722)">
      <g id="Surfaces-12" data-name="Surfaces" transform="translate(0 -0.021)">
        <g id="Video_Audio_Surface-12" data-name="Video/Audio Surface">
          <g id="Outline_no_shadow-12" data-name="Outline no shadow">
            <rect id="Rectangle_41-12" data-name="Rectangle 41" width="188.294" height="183.701" rx="42.5" fill="#110c39"/>
          </g>
        </g>
      </g>
      <g id="Outlined_Mnemonics_Logos-12" data-name="Outlined Mnemonics &amp; Logos" transform="translate(23.272 47.163)">
        <g id="Ae-12" data-name="Ae">
          <path id="Tracé_10-12" data-name="Tracé 10" d="M82.054,122.808H52.862l-5.939,18.485a1.486,1.486,0,0,1-1.517,1.137H30.621q-1.265,0-.885-1.39L55.011,68.553c.253-.758.505-1.5.758-2.469a27,27,0,0,0,.505-5.118.782.782,0,0,1,.885-.885H77.252q.882,0,1.011.632l28.686,80.454q.379,1.265-.758,1.264H89.763a1.168,1.168,0,0,1-1.264-.885ZM57.412,107.222H77.378q-.758-2.526-1.769-5.687t-2.148-6.761l-2.275-7.2q-1.137-3.6-2.085-6.95t-1.706-6.129h-.126A101.914,101.914,0,0,1,64.615,84.6q-1.771,5.687-3.6,11.626T57.412,107.222Z" transform="translate(-29.649 -60.073)" fill="#99f"/>
          <path id="Tracé_11-12" data-name="Tracé 11" d="M175.711,120.775H150.816a17.753,17.753,0,0,0,2.4,6.963,13,13,0,0,0,5.75,4.739,24.009,24.009,0,0,0,10.047,1.969,45.527,45.527,0,0,0,8.151-.895,30.041,30.041,0,0,0,7.008-1.827c.42-.336.632-.126.632.632v12.005a1.871,1.871,0,0,1-.19.948,1.813,1.813,0,0,1-.569.569,32.137,32.137,0,0,1-7.829,2.332,55.543,55.543,0,0,1-11.121.948q-8.974,0-15.038-2.78a26.8,26.8,0,0,1-9.857-7.456,29.2,29.2,0,0,1-5.434-10.3,40.555,40.555,0,0,1-1.643-11.437,39.832,39.832,0,0,1,1.959-12.447A32.515,32.515,0,0,1,140.959,94a28.229,28.229,0,0,1,9.478-7.456c3.706-1.811,8.087-2.46,13.142-2.46a28.519,28.519,0,0,1,12.195,2.4,21.493,21.493,0,0,1,8.277,6.251,28.742,28.742,0,0,1,4.676,8.909,31.751,31.751,0,0,1,1.517,9.6q0,2.781-.19,5.055t-.316,3.286A1.145,1.145,0,0,1,188.6,120.6q-.758,0-2.59.19t-4.549.253C179.648,121.084,177.733,120.775,175.711,120.775Zm-24.895-11.512H167.37q3.033,0,4.486-.063a4.414,4.414,0,0,0,1.833-.607v-.758a10.11,10.11,0,0,0-.505-2.906,10.324,10.324,0,0,0-10.236-7.2,10.978,10.978,0,0,0-10.426,5.939A18.278,18.278,0,0,0,150.816,109.263Z" transform="translate(-51.905 -65.235)" fill="#99f"/>
        </g>
      </g>
    </g>
  </g>
</svg>
