<svg xmlns="http://www.w3.org/2000/svg" width="466.384" height="862.917" viewBox="0 0 466.384 862.917">
  <defs>
    <style>
      .cls-1 {
        fill: #110c39;
      }

      .cls-2 {
        fill: #99f;
      }
    </style>
  </defs>
  <g id="Groupe_3" data-name="Groupe 3" transform="translate(34.67 -60.751)">
    <g id="Layer_2" data-name="Layer 2" transform="translate(-27.317 84.341) rotate(-9)">
      <g id="Surfaces" transform="translate(0 -0.021)">
        <g id="Video_Audio_Surface" data-name="Video/Audio Surface">
          <g id="Outline_no_shadow" data-name="Outline no shadow">
            <rect id="Rectangle_41" data-name="Rectangle 41" class="cls-1" width="150.664" height="146.989" rx="42.5"/>
          </g>
        </g>
      </g>
      <g id="Outlined_Mnemonics_Logos" data-name="Outlined Mnemonics &amp; Logos" transform="translate(18.621 37.734)">
        <g id="Ae">
          <path id="Tracé_10" data-name="Tracé 10" class="cls-2" d="M71.581,110.271H48.223l-4.752,14.791a1.189,1.189,0,0,1-1.213.91H30.427q-1.012,0-.708-1.112l20.223-58c.2-.607.4-1.2.607-1.975a21.6,21.6,0,0,0,.4-4.1.626.626,0,0,1,.708-.708H67.739q.706,0,.809.506L91.5,124.961q.3,1.012-.607,1.011H77.749a.934.934,0,0,1-1.011-.708ZM51.864,97.8H67.84q-.607-2.021-1.416-4.55t-1.719-5.41l-1.82-5.764q-.91-2.882-1.669-5.561t-1.365-4.9h-.1A81.549,81.549,0,0,1,57.627,79.7Q56.21,84.25,54.745,89T51.864,97.8Z" transform="translate(-29.649 -60.073)"/>
          <path id="Tracé_11" data-name="Tracé 11" class="cls-2" d="M167.2,113.44H147.28a14.2,14.2,0,0,0,1.921,5.571,10.4,10.4,0,0,0,4.6,3.792,19.212,19.212,0,0,0,8.039,1.576,36.43,36.43,0,0,0,6.522-.716,24.039,24.039,0,0,0,5.607-1.462c.336-.269.506-.1.506.506v9.606a1.5,1.5,0,0,1-.152.758,1.451,1.451,0,0,1-.455.455,25.715,25.715,0,0,1-6.265,1.866,44.443,44.443,0,0,1-8.9.758,28.835,28.835,0,0,1-12.033-2.225,21.446,21.446,0,0,1-7.887-5.966,23.362,23.362,0,0,1-4.348-8.241,32.45,32.45,0,0,1-1.314-9.151,31.871,31.871,0,0,1,1.567-9.96,26.017,26.017,0,0,1,4.7-8.595,22.587,22.587,0,0,1,7.584-5.966,23.745,23.745,0,0,1,10.516-1.969A22.82,22.82,0,0,1,167.25,86a17.2,17.2,0,0,1,6.623,5,23,23,0,0,1,3.741,7.129,25.4,25.4,0,0,1,1.213,7.685q0,2.225-.152,4.045t-.253,2.629a.916.916,0,0,1-.91.809q-.607,0-2.073.152t-3.64.2C170.35,113.687,168.818,113.44,167.2,113.44Zm-19.92-9.211h13.246q2.427,0,3.589-.051a3.532,3.532,0,0,0,1.467-.486v-.607a8.088,8.088,0,0,0-.4-2.326A8.261,8.261,0,0,0,156.987,95a8.784,8.784,0,0,0-8.342,4.752A14.625,14.625,0,0,0,147.28,104.229Z" transform="translate(-68.137 -69)"/>
        </g>
      </g>
    </g>
    <g id="Layer_2-2" data-name="Layer 2" transform="matrix(0.946, 0.326, -0.326, 0.946, 310.227, 195.594)">
      <g id="Surfaces-2" data-name="Surfaces" transform="translate(0 -0.021)">
        <g id="Video_Audio_Surface-2" data-name="Video/Audio Surface">
          <g id="Outline_no_shadow-2" data-name="Outline no shadow">
            <rect id="Rectangle_41-2" data-name="Rectangle 41" class="cls-1" width="128.48" height="125.346" rx="42.5"/>
          </g>
        </g>
      </g>
      <g id="Outlined_Mnemonics_Logos-2" data-name="Outlined Mnemonics &amp; Logos" transform="translate(15.879 32.175)">
        <g id="Ae-2" data-name="Ae">
          <path id="Tracé_10-2" data-name="Tracé 10" class="cls-2" d="M65.407,102.88H45.488l-4.053,12.613a1.014,1.014,0,0,1-1.035.776H30.312q-.863,0-.6-.949L46.954,65.859c.172-.517.345-1.023.517-1.685a18.419,18.419,0,0,0,.345-3.492.534.534,0,0,1,.6-.6H62.13q.6,0,.69.431l19.573,54.9q.258.863-.517.862H70.667a.8.8,0,0,1-.862-.6ZM48.593,92.245H62.216q-.517-1.724-1.207-3.88t-1.466-4.613l-1.552-4.915q-.776-2.457-1.423-4.742T55.4,69.912h-.086a69.543,69.543,0,0,1-1.811,6.9Q52.3,80.69,51.05,84.743T48.593,92.245Z" transform="translate(-29.649 -60.073)"/>
          <path id="Tracé_11-2" data-name="Tracé 11" class="cls-2" d="M162.182,109.116H145.2a12.114,12.114,0,0,0,1.638,4.751,8.871,8.871,0,0,0,3.923,3.233,16.383,16.383,0,0,0,6.855,1.344,31.066,31.066,0,0,0,5.561-.611,20.5,20.5,0,0,0,4.782-1.246c.287-.229.431-.086.431.431v8.192a1.277,1.277,0,0,1-.129.647,1.237,1.237,0,0,1-.388.388,21.928,21.928,0,0,1-5.342,1.591,37.9,37.9,0,0,1-7.588.647,24.589,24.589,0,0,1-10.261-1.9,18.288,18.288,0,0,1-6.726-5.087,19.922,19.922,0,0,1-3.708-7.028,27.672,27.672,0,0,1-1.121-7.8,27.178,27.178,0,0,1,1.337-8.493,22.186,22.186,0,0,1,4.009-7.329,19.261,19.261,0,0,1,6.467-5.087,20.249,20.249,0,0,1,8.967-1.679,19.459,19.459,0,0,1,8.321,1.638,14.665,14.665,0,0,1,5.648,4.266,19.611,19.611,0,0,1,3.19,6.079,21.664,21.664,0,0,1,1.035,6.553q0,1.9-.129,3.449t-.215,2.242a.781.781,0,0,1-.776.69q-.517,0-1.768.129t-3.1.172C164.869,109.326,163.562,109.116,162.182,109.116ZM145.2,101.261h11.3q2.07,0,3.061-.043a3.012,3.012,0,0,0,1.251-.414v-.517a6.9,6.9,0,0,0-.345-1.983,7.044,7.044,0,0,0-6.984-4.915,7.49,7.49,0,0,0-7.114,4.053A12.471,12.471,0,0,0,145.2,101.261Z" transform="translate(-77.705 -71.219)"/>
        </g>
      </g>
    </g>
    <g id="Layer_2-3" data-name="Layer 2" transform="translate(71.199 351.444) rotate(-1)">
      <g id="Surfaces-3" data-name="Surfaces" transform="translate(0 -0.021)">
        <g id="Video_Audio_Surface-3" data-name="Video/Audio Surface">
          <g id="Outline_no_shadow-3" data-name="Outline no shadow">
            <rect id="Rectangle_41-3" data-name="Rectangle 41" class="cls-1" width="102.473" height="99.974" rx="42.5"/>
          </g>
        </g>
      </g>
      <g id="Outlined_Mnemonics_Logos-3" data-name="Outlined Mnemonics &amp; Logos" transform="translate(12.665 25.658)">
        <g id="Ae-3" data-name="Ae">
          <path id="Tracé_10-3" data-name="Tracé 10" class="cls-2" d="M58.169,94.215H42.282l-3.232,10.06a.809.809,0,0,1-.825.619H30.178q-.688,0-.481-.757l13.755-39.45c.137-.413.275-.816.413-1.344a14.691,14.691,0,0,0,.275-2.785.426.426,0,0,1,.481-.481H55.555q.48,0,.55.344l15.611,43.785q.206.688-.413.688H62.364a.636.636,0,0,1-.688-.481ZM44.758,85.733H55.624q-.413-1.375-.963-3.095t-1.169-3.679l-1.238-3.92q-.619-1.96-1.135-3.783t-.928-3.335h-.069a55.466,55.466,0,0,1-1.444,5.5q-.964,3.095-1.96,6.327T44.758,85.733Z" transform="translate(-29.649 -60.073)"/>
          <path id="Tracé_11-3" data-name="Tracé 11" class="cls-2" d="M156.3,104.047H142.752a9.662,9.662,0,0,0,1.307,3.789,7.076,7.076,0,0,0,3.129,2.579,13.067,13.067,0,0,0,5.468,1.072,24.778,24.778,0,0,0,4.436-.487,16.35,16.35,0,0,0,3.814-.994c.229-.183.344-.069.344.344v6.533a1.018,1.018,0,0,1-.1.516.987.987,0,0,1-.31.309,17.49,17.49,0,0,1-4.261,1.269,30.227,30.227,0,0,1-6.052.516,19.612,19.612,0,0,1-8.184-1.513,14.586,14.586,0,0,1-5.364-4.058,15.889,15.889,0,0,1-2.957-5.605,22.07,22.07,0,0,1-.894-6.224,21.676,21.676,0,0,1,1.066-6.774,17.7,17.7,0,0,1,3.2-5.846,15.362,15.362,0,0,1,5.158-4.058,16.15,16.15,0,0,1,7.152-1.339,15.521,15.521,0,0,1,6.637,1.307,11.7,11.7,0,0,1,4.5,3.4,15.642,15.642,0,0,1,2.545,4.849,17.279,17.279,0,0,1,.825,5.227q0,1.513-.1,2.751t-.172,1.788a.623.623,0,0,1-.619.55q-.413,0-1.41.1t-2.476.138C158.443,104.214,157.4,104.047,156.3,104.047Zm-13.548-6.265h9.009q1.651,0,2.441-.034a2.4,2.4,0,0,0,1-.331V97a5.5,5.5,0,0,0-.275-1.582,5.618,5.618,0,0,0-5.571-3.92,5.974,5.974,0,0,0-5.674,3.232A9.947,9.947,0,0,0,142.752,97.782Z" transform="translate(-88.923 -73.821)"/>
        </g>
      </g>
    </g>
    <g id="Layer_2-4" data-name="Layer 2" transform="matrix(0.966, -0.259, 0.259, 0.966, 254.392, 552.443)">
      <g id="Surfaces-4" data-name="Surfaces" transform="translate(0 -0.021)">
        <g id="Video_Audio_Surface-4" data-name="Video/Audio Surface">
          <g id="Outline_no_shadow-4" data-name="Outline no shadow">
            <rect id="Rectangle_41-4" data-name="Rectangle 41" class="cls-1" width="134.759" height="131.472" rx="42.5"/>
          </g>
        </g>
      </g>
      <g id="Outlined_Mnemonics_Logos-4" data-name="Outlined Mnemonics &amp; Logos" transform="translate(16.655 33.748)">
        <g id="Ae-4" data-name="Ae">
          <path id="Tracé_10-4" data-name="Tracé 10" class="cls-2" d="M67.154,104.972H46.262L42.012,118.2a1.064,1.064,0,0,1-1.085.814H30.345q-.905,0-.633-.995L47.8,66.142c.181-.543.362-1.073.543-1.767a19.319,19.319,0,0,0,.362-3.663.56.56,0,0,1,.633-.633h14.38q.632,0,.724.452l20.53,57.58q.271.905-.543.9H72.671a.836.836,0,0,1-.9-.633ZM49.518,93.817h14.29q-.543-1.808-1.266-4.07T61,84.908l-1.628-5.155q-.814-2.577-1.492-4.974t-1.221-4.386h-.09a72.942,72.942,0,0,1-1.9,7.235Q53.406,81.7,52.1,85.948T49.518,93.817Z" transform="translate(-29.649 -60.073)"/>
          <path id="Tracé_11-4" data-name="Tracé 11" class="cls-2" d="M163.6,110.34H145.786a12.706,12.706,0,0,0,1.718,4.983,9.305,9.305,0,0,0,4.115,3.391,17.184,17.184,0,0,0,7.19,1.409,32.585,32.585,0,0,0,5.833-.64,21.5,21.5,0,0,0,5.015-1.307c.3-.24.452-.09.452.452v8.592a1.339,1.339,0,0,1-.136.678,1.3,1.3,0,0,1-.407.407,23,23,0,0,1-5.6,1.669,39.752,39.752,0,0,1-7.959.678,25.791,25.791,0,0,1-10.763-1.99,19.182,19.182,0,0,1-7.054-5.336,20.9,20.9,0,0,1-3.889-7.371,29.024,29.024,0,0,1-1.176-8.185,28.506,28.506,0,0,1,1.4-8.908,23.271,23.271,0,0,1,4.205-7.688,20.2,20.2,0,0,1,6.783-5.336,21.239,21.239,0,0,1,9.406-1.761,20.411,20.411,0,0,1,8.728,1.718,15.382,15.382,0,0,1,5.924,4.474,20.57,20.57,0,0,1,3.346,6.376A22.722,22.722,0,0,1,174,103.52q0,1.99-.136,3.618t-.226,2.351a.819.819,0,0,1-.814.724q-.543,0-1.854.136t-3.256.181C166.42,110.561,165.05,110.34,163.6,110.34ZM145.786,102.1h11.848q2.171,0,3.211-.045a3.159,3.159,0,0,0,1.312-.435v-.543a7.235,7.235,0,0,0-.362-2.08,7.389,7.389,0,0,0-7.326-5.155,7.856,7.856,0,0,0-7.462,4.251A13.08,13.08,0,0,0,145.786,102.1Z" transform="translate(-74.997 -70.591)"/>
        </g>
      </g>
    </g>
    <g id="Layer_2-5" data-name="Layer 2" transform="translate(-16.375 620.027) rotate(8)">
      <g id="Surfaces-5" data-name="Surfaces" transform="translate(0 -0.021)">
        <g id="Video_Audio_Surface-5" data-name="Video/Audio Surface">
          <g id="Outline_no_shadow-5" data-name="Outline no shadow">
            <rect id="Rectangle_41-5" data-name="Rectangle 41" class="cls-1" width="134.759" height="131.472" rx="42.5"/>
          </g>
        </g>
      </g>
      <g id="Outlined_Mnemonics_Logos-5" data-name="Outlined Mnemonics &amp; Logos" transform="translate(16.655 33.748)">
        <g id="Ae-5" data-name="Ae">
          <path id="Tracé_10-5" data-name="Tracé 10" class="cls-2" d="M67.154,104.972H46.262L42.012,118.2a1.064,1.064,0,0,1-1.085.814H30.345q-.905,0-.633-.995L47.8,66.142c.181-.543.362-1.073.543-1.767a19.319,19.319,0,0,0,.362-3.663.56.56,0,0,1,.633-.633h14.38q.632,0,.724.452l20.53,57.58q.271.905-.543.9H72.671a.836.836,0,0,1-.9-.633ZM49.518,93.817h14.29q-.543-1.808-1.266-4.07T61,84.908l-1.628-5.155q-.814-2.577-1.492-4.974t-1.221-4.386h-.09a72.942,72.942,0,0,1-1.9,7.235Q53.406,81.7,52.1,85.948T49.518,93.817Z" transform="translate(-29.649 -60.073)"/>
          <path id="Tracé_11-5" data-name="Tracé 11" class="cls-2" d="M163.6,110.34H145.786a12.706,12.706,0,0,0,1.718,4.983,9.305,9.305,0,0,0,4.115,3.391,17.184,17.184,0,0,0,7.19,1.409,32.585,32.585,0,0,0,5.833-.64,21.5,21.5,0,0,0,5.015-1.307c.3-.24.452-.09.452.452v8.592a1.339,1.339,0,0,1-.136.678,1.3,1.3,0,0,1-.407.407,23,23,0,0,1-5.6,1.669,39.752,39.752,0,0,1-7.959.678,25.791,25.791,0,0,1-10.763-1.99,19.182,19.182,0,0,1-7.054-5.336,20.9,20.9,0,0,1-3.889-7.371,29.024,29.024,0,0,1-1.176-8.185,28.506,28.506,0,0,1,1.4-8.908,23.271,23.271,0,0,1,4.205-7.688,20.2,20.2,0,0,1,6.783-5.336,21.239,21.239,0,0,1,9.406-1.761,20.411,20.411,0,0,1,8.728,1.718,15.382,15.382,0,0,1,5.924,4.474,20.57,20.57,0,0,1,3.346,6.376A22.722,22.722,0,0,1,174,103.52q0,1.99-.136,3.618t-.226,2.351a.819.819,0,0,1-.814.724q-.543,0-1.854.136t-3.256.181C166.42,110.561,165.05,110.34,163.6,110.34ZM145.786,102.1h11.848q2.171,0,3.211-.045a3.159,3.159,0,0,0,1.312-.435v-.543a7.235,7.235,0,0,0-.362-2.08,7.389,7.389,0,0,0-7.326-5.155,7.856,7.856,0,0,0-7.462,4.251A13.08,13.08,0,0,0,145.786,102.1Z" transform="translate(-74.997 -70.591)"/>
        </g>
      </g>
    </g>
    <g id="Layer_2-6" data-name="Layer 2" transform="translate(195.001 831.27) rotate(-3)">
      <g id="Surfaces-6" data-name="Surfaces" transform="translate(0 -0.021)">
        <g id="Video_Audio_Surface-6" data-name="Video/Audio Surface">
          <g id="Outline_no_shadow-6" data-name="Outline no shadow">
            <rect id="Rectangle_41-6" data-name="Rectangle 41" class="cls-1" width="94.861" height="92.547" rx="42.5"/>
          </g>
        </g>
      </g>
      <g id="Outlined_Mnemonics_Logos-6" data-name="Outlined Mnemonics &amp; Logos" transform="translate(11.724 23.75)">
        <g id="Ae-6" data-name="Ae">
          <path id="Tracé_10-6" data-name="Tracé 10" class="cls-2" d="M56.05,91.679H41.344l-2.992,9.313a.749.749,0,0,1-.764.573H30.139q-.637,0-.446-.7L42.426,64.345c.127-.382.255-.755.382-1.244a13.6,13.6,0,0,0,.255-2.578.394.394,0,0,1,.446-.446H53.631q.445,0,.509.318l14.452,40.532q.191.637-.382.637H59.934a.588.588,0,0,1-.637-.446ZM43.636,83.826H53.695q-.382-1.273-.891-2.865t-1.082-3.406l-1.146-3.629q-.573-1.814-1.051-3.5t-.859-3.088H48.6a51.345,51.345,0,0,1-1.337,5.093q-.892,2.865-1.814,5.857T43.636,83.826Z" transform="translate(-29.649 -60.073)"/>
          <path id="Tracé_11-6" data-name="Tracé 11" class="cls-2" d="M154.579,102.563H142.037a8.944,8.944,0,0,0,1.21,3.508,6.55,6.55,0,0,0,2.9,2.387,12.1,12.1,0,0,0,5.061.992,22.938,22.938,0,0,0,4.106-.451,15.136,15.136,0,0,0,3.531-.92c.212-.169.318-.064.318.318v6.048a.943.943,0,0,1-.1.477.913.913,0,0,1-.287.286,16.191,16.191,0,0,1-3.944,1.175,27.983,27.983,0,0,1-5.6.477,18.155,18.155,0,0,1-7.576-1.4,13.5,13.5,0,0,1-4.966-3.756,14.709,14.709,0,0,1-2.738-5.189,20.431,20.431,0,0,1-.828-5.762,20.066,20.066,0,0,1,.987-6.271,16.381,16.381,0,0,1,2.96-5.411,14.221,14.221,0,0,1,4.775-3.756,14.95,14.95,0,0,1,6.621-1.239,14.367,14.367,0,0,1,6.144,1.21,10.827,10.827,0,0,1,4.17,3.149,14.48,14.48,0,0,1,2.356,4.488,16,16,0,0,1,.764,4.839q0,1.4-.1,2.547t-.159,1.655a.577.577,0,0,1-.573.509q-.382,0-1.305.1t-2.292.127C156.562,102.718,155.6,102.563,154.579,102.563Zm-12.542-5.8h8.34q1.528,0,2.26-.032a2.224,2.224,0,0,0,.923-.306v-.382a5.093,5.093,0,0,0-.255-1.464,5.2,5.2,0,0,0-5.157-3.629,5.53,5.53,0,0,0-5.252,2.992A9.208,9.208,0,0,0,142.037,96.763Z" transform="translate(-92.207 -74.582)"/>
        </g>
      </g>
    </g>
  </g>
</svg>
